solid OpenSCAD_Model
  facet normal 0.866032 0.499988 0
    outer loop
      vertex 10.9625 4.88084 1.25
      vertex 9.7082 7.05342 0
      vertex 9.7082 7.05342 1.25
    endloop
  endfacet
  facet normal 0.866032 0.499988 0
    outer loop
      vertex 9.7082 7.05342 0
      vertex 10.9625 4.88084 1.25
      vertex 10.9625 4.88084 0
    endloop
  endfacet
  facet normal 0 0 -1
    outer loop
      vertex 0 3.15 0
      vertex -0.728679 3.15 0
      vertex 0 7.65 0
    endloop
  endfacet
  facet normal 0 0 -1
    outer loop
      vertex 3.15 0.15 0
      vertex 7.65 4.5 0
      vertex 7.65 0.15 0
    endloop
  endfacet
  facet normal -0 0 -1
    outer loop
      vertex 7.65 4.5 0
      vertex 3.15 0.15 0
      vertex 3.15 4.5 0
    endloop
  endfacet
  facet normal 0 0 -1
    outer loop
      vertex 7.65 0.15 0
      vertex 11.9921 0.0749998 0
      vertex 11.7378 -2.34494 0
    endloop
  endfacet
  facet normal 0 0 -1
    outer loop
      vertex 7.65 -5.22868 0
      vertex 11.7378 -2.34494 0
      vertex 10.9625 -4.73084 0
    endloop
  endfacet
  facet normal 0 0 -1
    outer loop
      vertex 11.9921 0.0749998 0
      vertex 7.65 0.15 0
      vertex 11.7378 2.49494 0
    endloop
  endfacet
  facet normal 0 0 -1
    outer loop
      vertex 7.65 -5.22868 0
      vertex 10.9625 -4.73084 0
      vertex 9.7082 -6.90342 0
    endloop
  endfacet
  facet normal 0 0 -1
    outer loop
      vertex 7.65 4.5 0
      vertex 11.7378 2.49494 0
      vertex 7.65 0.15 0
    endloop
  endfacet
  facet normal 0 0 -1
    outer loop
      vertex 7.65 -5.22868 0
      vertex 9.7082 -6.90342 0
      vertex 9.52652 -7.1052 0
    endloop
  endfacet
  facet normal 0 0 -1
    outer loop
      vertex 11.7378 2.49494 0
      vertex 7.65 4.5 0
      vertex 10.9625 4.88084 0
    endloop
  endfacet
  facet normal -0 0 -1
    outer loop
      vertex 11.7378 -2.34494 0
      vertex 7.65 -5.22868 0
      vertex 7.65 0.15 0
    endloop
  endfacet
  facet normal -0 0 -1
    outer loop
      vertex 10.9625 4.88084 0
      vertex 7.65 4.5 0
      vertex 9.7082 7.05342 0
    endloop
  endfacet
  facet normal 0 0 -1
    outer loop
      vertex 7.65 7.65 0
      vertex 9.7082 7.05342 0
      vertex 7.65 4.5 0
    endloop
  endfacet
  facet normal 0 0 -1
    outer loop
      vertex 9.7082 7.05342 0
      vertex 7.65 7.65 0
      vertex 8.02957 8.91774 0
    endloop
  endfacet
  facet normal 0 0 -1
    outer loop
      vertex 7.65 7.65 0
      vertex 6 10.3923 0
      vertex 8.02957 8.91774 0
    endloop
  endfacet
  facet normal 0 0 -1
    outer loop
      vertex 0 7.65 0
      vertex 6 10.3923 0
      vertex 7.65 7.65 0
    endloop
  endfacet
  facet normal -0 0 -1
    outer loop
      vertex 6 10.3923 0
      vertex 0 7.65 0
      vertex 3.7082 11.4127 0
    endloop
  endfacet
  facet normal -0 0 -1
    outer loop
      vertex 3.7082 11.4127 0
      vertex 0 7.65 0
      vertex 1.25434 11.9343 0
    endloop
  endfacet
  facet normal 0 0 -1
    outer loop
      vertex 0 7.65 0
      vertex -1.10434 11.9343 0
      vertex 1.25434 11.9343 0
    endloop
  endfacet
  facet normal 0 0 -1
    outer loop
      vertex -4.35 6.77132 0
      vertex 0 7.65 0
      vertex -0.728679 3.15 0
    endloop
  endfacet
  facet normal 0 -0 -1
    outer loop
      vertex -3.5582 11.4127 0
      vertex 0 7.65 0
      vertex -4.35 7.65 0
    endloop
  endfacet
  facet normal -0 0 -1
    outer loop
      vertex 0 7.65 0
      vertex -4.35 6.77132 0
      vertex -4.35 7.65 0
    endloop
  endfacet
  facet normal 0 0 -1
    outer loop
      vertex 0 7.65 0
      vertex -3.5582 11.4127 0
      vertex -1.10434 11.9343 0
    endloop
  endfacet
  facet normal 0 0 -1
    outer loop
      vertex -5.85 10.3923 0
      vertex -4.35 7.65 0
      vertex -5.22868 7.65 0
    endloop
  endfacet
  facet normal 0 0 -1
    outer loop
      vertex -4.35 7.65 0
      vertex -5.85 10.3923 0
      vertex -3.5582 11.4127 0
    endloop
  endfacet
  facet normal 0 -0 -1
    outer loop
      vertex -5.85 10.3923 0
      vertex -5.22868 7.65 0
      vertex -7.07846 9.49978 0
    endloop
  endfacet
  facet normal 0 0 -1
    outer loop
      vertex 6 -10.2423 0
      vertex 5.37868 -7.5 0
      vertex 7.22846 -9.34978 0
    endloop
  endfacet
  facet normal 0 0 -1
    outer loop
      vertex 6 -10.2423 0
      vertex 4.5 -7.5 0
      vertex 5.37868 -7.5 0
    endloop
  endfacet
  facet normal 0 0 -1
    outer loop
      vertex 3.7082 -11.2627 0
      vertex 4.5 -7.5 0
      vertex 6 -10.2423 0
    endloop
  endfacet
  facet normal 0 0 -1
    outer loop
      vertex 0.15 -7.5 0
      vertex 4.5 -7.5 0
      vertex 3.7082 -11.2627 0
    endloop
  endfacet
  facet normal 0 0 -1
    outer loop
      vertex 0.15 -7.5 0
      vertex 3.7082 -11.2627 0
      vertex 1.25434 -11.7843 0
    endloop
  endfacet
  facet normal 0 0 -1
    outer loop
      vertex 4.5 -7.5 0
      vertex 0.15 -7.5 0
      vertex 4.5 -6.62132 0
    endloop
  endfacet
  facet normal -0 0 -1
    outer loop
      vertex 4.5 -6.62132 0
      vertex 0.15 -7.5 0
      vertex 0.878679 -3 0
    endloop
  endfacet
  facet normal 0 0 -1
    outer loop
      vertex -1.10434 -11.7843 0
      vertex 0.15 -7.5 0
      vertex 1.25434 -11.7843 0
    endloop
  endfacet
  facet normal 0 0 -1
    outer loop
      vertex -3.5582 -11.2627 0
      vertex 0.15 -7.5 0
      vertex -1.10434 -11.7843 0
    endloop
  endfacet
  facet normal 0 0 -1
    outer loop
      vertex -5.85 -10.2423 0
      vertex 0.15 -7.5 0
      vertex -3.5582 -11.2627 0
    endloop
  endfacet
  facet normal 0 0 -1
    outer loop
      vertex -5.85 -10.2423 0
      vertex -7.5 -7.5 0
      vertex 0.15 -7.5 0
    endloop
  endfacet
  facet normal 0 0 -1
    outer loop
      vertex -9.5582 -6.90342 0
      vertex -7.5 -4.35 0
      vertex -7.5 -7.5 0
    endloop
  endfacet
  facet normal 0 0 -1
    outer loop
      vertex -11.5878 -2.34494 0
      vertex -7.5 -4.35 0
      vertex -10.8125 -4.73084 0
    endloop
  endfacet
  facet normal 0 0 -1
    outer loop
      vertex -7.87957 -8.76774 0
      vertex -7.5 -7.5 0
      vertex -5.85 -10.2423 0
    endloop
  endfacet
  facet normal 0 0 -1
    outer loop
      vertex -9.5582 -6.90342 0
      vertex -7.5 -7.5 0
      vertex -7.87957 -8.76774 0
    endloop
  endfacet
  facet normal 0 0 -1
    outer loop
      vertex -7.5 -4.35 0
      vertex -9.5582 -6.90342 0
      vertex -10.8125 -4.73084 0
    endloop
  endfacet
  facet normal 0 0 -1
    outer loop
      vertex -7.5 -4.35 0
      vertex -11.5878 -2.34494 0
      vertex -7.5 0 0
    endloop
  endfacet
  facet normal 0 0 -1
    outer loop
      vertex -11.8421 0.0749998 0
      vertex -7.5 0 0
      vertex -11.5878 -2.34494 0
    endloop
  endfacet
  facet normal 0 -0 -1
    outer loop
      vertex -9.5582 7.05342 0
      vertex -7.5 5.37868 0
      vertex -10.8125 4.88084 0
    endloop
  endfacet
  facet normal 0 0 -1
    outer loop
      vertex -7.5 5.37868 0
      vertex -9.5582 7.05342 0
      vertex -9.37652 7.2552 0
    endloop
  endfacet
  facet normal 0 -0 -1
    outer loop
      vertex -11.5878 2.49494 0
      vertex -7.5 0 0
      vertex -11.8421 0.0749998 0
    endloop
  endfacet
  facet normal 0 0 -1
    outer loop
      vertex -7.5 5.37868 0
      vertex -11.5878 2.49494 0
      vertex -10.8125 4.88084 0
    endloop
  endfacet
  facet normal 0 0 -1
    outer loop
      vertex -7.5 0 0
      vertex -11.5878 2.49494 0
      vertex -7.5 5.37868 0
    endloop
  endfacet
  facet normal -0 0 -1
    outer loop
      vertex 0.878679 -3 0
      vertex 0.15 -7.5 0
      vertex 0.15 -3 0
    endloop
  endfacet
  facet normal 0 0 -1
    outer loop
      vertex -7.5 -4.35 0
      vertex -3 0 0
      vertex -3 -4.35 0
    endloop
  endfacet
  facet normal -0 0 -1
    outer loop
      vertex -3 0 0
      vertex -7.5 -4.35 0
      vertex -7.5 0 0
    endloop
  endfacet
  facet normal 0.951048 0.309044 0
    outer loop
      vertex 11.7378 2.49494 1.25
      vertex 10.9625 4.88084 0
      vertex 10.9625 4.88084 1.25
    endloop
  endfacet
  facet normal 0.951048 0.309044 0
    outer loop
      vertex 10.9625 4.88084 0
      vertex 11.7378 2.49494 1.25
      vertex 11.7378 2.49494 0
    endloop
  endfacet
  facet normal 0.406745 0.913542 -0
    outer loop
      vertex 6 10.3923 0
      vertex 3.7082 11.4127 1.25
      vertex 6 10.3923 1.25
    endloop
  endfacet
  facet normal 0.406745 0.913542 0
    outer loop
      vertex 3.7082 11.4127 1.25
      vertex 6 10.3923 0
      vertex 3.7082 11.4127 0
    endloop
  endfacet
  facet normal 0 1 -0
    outer loop
      vertex 1.25434 11.9343 0
      vertex -1.10434 11.9343 1.25
      vertex 1.25434 11.9343 1.25
    endloop
  endfacet
  facet normal 0 1 0
    outer loop
      vertex -1.10434 11.9343 1.25
      vertex 1.25434 11.9343 0
      vertex -1.10434 11.9343 0
    endloop
  endfacet
  facet normal 0.587783 0.809019 -0
    outer loop
      vertex 8.02957 8.91774 0
      vertex 6 10.3923 1.25
      vertex 8.02957 8.91774 1.25
    endloop
  endfacet
  facet normal 0.587783 0.809019 0
    outer loop
      vertex 6 10.3923 1.25
      vertex 8.02957 8.91774 0
      vertex 6 10.3923 0
    endloop
  endfacet
  facet normal 0.743147 0.669128 0
    outer loop
      vertex 9.7082 7.05342 1.25
      vertex 8.02957 8.91774 0
      vertex 8.02957 8.91774 1.25
    endloop
  endfacet
  facet normal 0.743147 0.669128 0
    outer loop
      vertex 8.02957 8.91774 0
      vertex 9.7082 7.05342 1.25
      vertex 9.7082 7.05342 0
    endloop
  endfacet
  facet normal -0 0 1
    outer loop
      vertex -5.85 10.3923 1.25
      vertex -4.35 7.65 1.25
      vertex -3.5582 11.4127 1.25
    endloop
  endfacet
  facet normal 0 0 1
    outer loop
      vertex -4.35 7.65 1.25
      vertex -5.85 10.3923 1.25
      vertex -5.22868 7.65 1.25
    endloop
  endfacet
  facet normal 0 0 1
    outer loop
      vertex -5.22868 7.65 1.25
      vertex -5.85 10.3923 1.25
      vertex -7.07846 9.49978 1.25
    endloop
  endfacet
  facet normal -0 0 1
    outer loop
      vertex 3.15 4.5 1.25
      vertex 7.65 0.15 1.25
      vertex 7.65 4.5 1.25
    endloop
  endfacet
  facet normal 0 0 1
    outer loop
      vertex 7.65 0.15 1.25
      vertex 3.15 4.5 1.25
      vertex 3.15 0.15 1.25
    endloop
  endfacet
  facet normal 0 0 1
    outer loop
      vertex 6 10.3923 1.25
      vertex 7.65 7.65 1.25
      vertex 8.02957 8.91774 1.25
    endloop
  endfacet
  facet normal 0 0 1
    outer loop
      vertex 0 7.65 1.25
      vertex 6 10.3923 1.25
      vertex 3.7082 11.4127 1.25
    endloop
  endfacet
  facet normal 0 0 1
    outer loop
      vertex 0 7.65 1.25
      vertex 3.7082 11.4127 1.25
      vertex 1.25434 11.9343 1.25
    endloop
  endfacet
  facet normal 0 0 1
    outer loop
      vertex 6 10.3923 1.25
      vertex 0 7.65 1.25
      vertex 7.65 7.65 1.25
    endloop
  endfacet
  facet normal 0 0 1
    outer loop
      vertex 0 7.65 1.25
      vertex -0.728679 3.15 1.25
      vertex 0 3.15 1.25
    endloop
  endfacet
  facet normal -0 0 1
    outer loop
      vertex -1.10434 11.9343 1.25
      vertex 0 7.65 1.25
      vertex 1.25434 11.9343 1.25
    endloop
  endfacet
  facet normal -0 0 1
    outer loop
      vertex -3.5582 11.4127 1.25
      vertex 0 7.65 1.25
      vertex -1.10434 11.9343 1.25
    endloop
  endfacet
  facet normal 0 0 1
    outer loop
      vertex 0 7.65 1.25
      vertex -3.5582 11.4127 1.25
      vertex -4.35 7.65 1.25
    endloop
  endfacet
  facet normal 0 0 1
    outer loop
      vertex -4.35 6.77132 1.25
      vertex 0 7.65 1.25
      vertex -4.35 7.65 1.25
    endloop
  endfacet
  facet normal 0 0 1
    outer loop
      vertex 0 7.65 1.25
      vertex -4.35 6.77132 1.25
      vertex -0.728679 3.15 1.25
    endloop
  endfacet
  facet normal -0 0 1
    outer loop
      vertex 7.65 0.15 1.25
      vertex 11.9921 0.0749998 1.25
      vertex 11.7378 2.49494 1.25
    endloop
  endfacet
  facet normal -0 0 1
    outer loop
      vertex 7.65 4.5 1.25
      vertex 11.7378 2.49494 1.25
      vertex 10.9625 4.88084 1.25
    endloop
  endfacet
  facet normal 0 0 1
    outer loop
      vertex 11.9921 0.0749998 1.25
      vertex 7.65 0.15 1.25
      vertex 11.7378 -2.34494 1.25
    endloop
  endfacet
  facet normal 0 0 1
    outer loop
      vertex 7.65 4.5 1.25
      vertex 10.9625 4.88084 1.25
      vertex 9.7082 7.05342 1.25
    endloop
  endfacet
  facet normal 0 0 1
    outer loop
      vertex 7.65 -5.22868 1.25
      vertex 11.7378 -2.34494 1.25
      vertex 7.65 0.15 1.25
    endloop
  endfacet
  facet normal 0 0 1
    outer loop
      vertex 11.7378 -2.34494 1.25
      vertex 7.65 -5.22868 1.25
      vertex 10.9625 -4.73084 1.25
    endloop
  endfacet
  facet normal -0 0 1
    outer loop
      vertex 7.65 7.65 1.25
      vertex 9.7082 7.05342 1.25
      vertex 8.02957 8.91774 1.25
    endloop
  endfacet
  facet normal 0 0 1
    outer loop
      vertex 9.7082 7.05342 1.25
      vertex 7.65 7.65 1.25
      vertex 7.65 4.5 1.25
    endloop
  endfacet
  facet normal 0 0 1
    outer loop
      vertex 11.7378 2.49494 1.25
      vertex 7.65 4.5 1.25
      vertex 7.65 0.15 1.25
    endloop
  endfacet
  facet normal 0 0 1
    outer loop
      vertex 10.9625 -4.73084 1.25
      vertex 7.65 -5.22868 1.25
      vertex 9.7082 -6.90342 1.25
    endloop
  endfacet
  facet normal 0 0 1
    outer loop
      vertex 9.7082 -6.90342 1.25
      vertex 7.65 -5.22868 1.25
      vertex 9.52652 -7.1052 1.25
    endloop
  endfacet
  facet normal -0 0 1
    outer loop
      vertex -11.5878 2.49494 1.25
      vertex -7.5 0 1.25
      vertex -7.5 5.37868 1.25
    endloop
  endfacet
  facet normal 0 -0 1
    outer loop
      vertex -11.5878 -2.34494 1.25
      vertex -7.5 0 1.25
      vertex -11.8421 0.0749998 1.25
    endloop
  endfacet
  facet normal 0 -0 1
    outer loop
      vertex -10.8125 -4.73084 1.25
      vertex -7.5 -4.35 1.25
      vertex -11.5878 -2.34494 1.25
    endloop
  endfacet
  facet normal -0 0 1
    outer loop
      vertex -9.5582 7.05342 1.25
      vertex -7.5 5.37868 1.25
      vertex -9.37652 7.2552 1.25
    endloop
  endfacet
  facet normal 0 0 1
    outer loop
      vertex -7.5 5.37868 1.25
      vertex -9.5582 7.05342 1.25
      vertex -10.8125 4.88084 1.25
    endloop
  endfacet
  facet normal 0 0 1
    outer loop
      vertex -7.5 -7.5 1.25
      vertex -9.5582 -6.90342 1.25
      vertex -7.87957 -8.76774 1.25
    endloop
  endfacet
  facet normal 0 0 1
    outer loop
      vertex -11.5878 2.49494 1.25
      vertex -7.5 5.37868 1.25
      vertex -10.8125 4.88084 1.25
    endloop
  endfacet
  facet normal 0 0 1
    outer loop
      vertex -7.5 -4.35 1.25
      vertex -9.5582 -6.90342 1.25
      vertex -7.5 -7.5 1.25
    endloop
  endfacet
  facet normal 0 0 1
    outer loop
      vertex -7.5 0 1.25
      vertex -11.5878 2.49494 1.25
      vertex -11.8421 0.0749998 1.25
    endloop
  endfacet
  facet normal 0 -0 1
    outer loop
      vertex -9.5582 -6.90342 1.25
      vertex -7.5 -4.35 1.25
      vertex -10.8125 -4.73084 1.25
    endloop
  endfacet
  facet normal 0 0 1
    outer loop
      vertex -7.5 0 1.25
      vertex -11.5878 -2.34494 1.25
      vertex -7.5 -4.35 1.25
    endloop
  endfacet
  facet normal -0 0 1
    outer loop
      vertex -7.5 0 1.25
      vertex -3 -4.35 1.25
      vertex -3 0 1.25
    endloop
  endfacet
  facet normal 0 0 1
    outer loop
      vertex -3 -4.35 1.25
      vertex -7.5 0 1.25
      vertex -7.5 -4.35 1.25
    endloop
  endfacet
  facet normal 0 0 1
    outer loop
      vertex 0.15 -7.5 1.25
      vertex 4.5 -7.5 1.25
      vertex 4.5 -6.62132 1.25
    endloop
  endfacet
  facet normal 0 0 1
    outer loop
      vertex 4.5 -7.5 1.25
      vertex 0.15 -7.5 1.25
      vertex 3.7082 -11.2627 1.25
    endloop
  endfacet
  facet normal 0 0 1
    outer loop
      vertex 0.15 -7.5 1.25
      vertex 4.5 -6.62132 1.25
      vertex 0.878679 -3 1.25
    endloop
  endfacet
  facet normal 0 0 1
    outer loop
      vertex 0.15 -7.5 1.25
      vertex 0.878679 -3 1.25
      vertex 0.15 -3 1.25
    endloop
  endfacet
  facet normal 0 0 1
    outer loop
      vertex 3.7082 -11.2627 1.25
      vertex 0.15 -7.5 1.25
      vertex 1.25434 -11.7843 1.25
    endloop
  endfacet
  facet normal 0 0 1
    outer loop
      vertex 0.15 -7.5 1.25
      vertex -1.10434 -11.7843 1.25
      vertex 1.25434 -11.7843 1.25
    endloop
  endfacet
  facet normal 0 0 1
    outer loop
      vertex 0.15 -7.5 1.25
      vertex -3.5582 -11.2627 1.25
      vertex -1.10434 -11.7843 1.25
    endloop
  endfacet
  facet normal 0 0 1
    outer loop
      vertex 0.15 -7.5 1.25
      vertex -5.85 -10.2423 1.25
      vertex -3.5582 -11.2627 1.25
    endloop
  endfacet
  facet normal -0 0 1
    outer loop
      vertex -7.5 -7.5 1.25
      vertex -5.85 -10.2423 1.25
      vertex 0.15 -7.5 1.25
    endloop
  endfacet
  facet normal 0 0 1
    outer loop
      vertex -5.85 -10.2423 1.25
      vertex -7.5 -7.5 1.25
      vertex -7.87957 -8.76774 1.25
    endloop
  endfacet
  facet normal 0 0 1
    outer loop
      vertex 5.37868 -7.5 1.25
      vertex 6 -10.2423 1.25
      vertex 7.22846 -9.34978 1.25
    endloop
  endfacet
  facet normal -0 0 1
    outer loop
      vertex 4.5 -7.5 1.25
      vertex 6 -10.2423 1.25
      vertex 5.37868 -7.5 1.25
    endloop
  endfacet
  facet normal 0 0 1
    outer loop
      vertex 6 -10.2423 1.25
      vertex 4.5 -7.5 1.25
      vertex 3.7082 -11.2627 1.25
    endloop
  endfacet
  facet normal 0.207918 0.978146 -0
    outer loop
      vertex 3.7082 11.4127 0
      vertex 1.25434 11.9343 1.25
      vertex 3.7082 11.4127 1.25
    endloop
  endfacet
  facet normal 0.207918 0.978146 0
    outer loop
      vertex 1.25434 11.9343 1.25
      vertex 3.7082 11.4127 0
      vertex 1.25434 11.9343 0
    endloop
  endfacet
  facet normal 1 -0 0
    outer loop
      vertex -3 -4.35 1.25
      vertex -3 0 0
      vertex -3 0 1.25
    endloop
  endfacet
  facet normal 1 0 0
    outer loop
      vertex -3 0 0
      vertex -3 -4.35 1.25
      vertex -3 -4.35 0
    endloop
  endfacet
  facet normal -1 0 0
    outer loop
      vertex 7.65 -5.22868 0
      vertex 7.65 0.15 1.25
      vertex 7.65 0.15 0
    endloop
  endfacet
  facet normal -1 -0 0
    outer loop
      vertex 7.65 0.15 1.25
      vertex 7.65 -5.22868 0
      vertex 7.65 -5.22868 1.25
    endloop
  endfacet
  facet normal 0 -1 0
    outer loop
      vertex 3.15 0.15 0
      vertex 7.65 0.15 1.25
      vertex 3.15 0.15 1.25
    endloop
  endfacet
  facet normal 0 -1 -0
    outer loop
      vertex 7.65 0.15 1.25
      vertex 3.15 0.15 0
      vertex 7.65 0.15 0
    endloop
  endfacet
  facet normal 0 1 -0
    outer loop
      vertex 0.878679 -3 0
      vertex 0.15 -3 1.25
      vertex 0.878679 -3 1.25
    endloop
  endfacet
  facet normal 0 1 0
    outer loop
      vertex 0.15 -3 1.25
      vertex 0.878679 -3 0
      vertex 0.15 -3 0
    endloop
  endfacet
  facet normal 0 1 -0
    outer loop
      vertex 5.37868 -7.5 0
      vertex 4.5 -7.5 1.25
      vertex 5.37868 -7.5 1.25
    endloop
  endfacet
  facet normal 0 1 0
    outer loop
      vertex 4.5 -7.5 1.25
      vertex 5.37868 -7.5 0
      vertex 4.5 -7.5 0
    endloop
  endfacet
  facet normal 1 -0 0
    outer loop
      vertex 4.5 -7.5 1.25
      vertex 4.5 -6.62132 0
      vertex 4.5 -6.62132 1.25
    endloop
  endfacet
  facet normal 1 0 0
    outer loop
      vertex 4.5 -6.62132 0
      vertex 4.5 -7.5 1.25
      vertex 4.5 -7.5 0
    endloop
  endfacet
  facet normal -1 0 0
    outer loop
      vertex 0.15 -7.5 0
      vertex 0.15 -3 1.25
      vertex 0.15 -3 0
    endloop
  endfacet
  facet normal -1 -0 0
    outer loop
      vertex 0.15 -3 1.25
      vertex 0.15 -7.5 0
      vertex 0.15 -7.5 1.25
    endloop
  endfacet
  facet normal 1 -0 0
    outer loop
      vertex -7.5 -7.5 1.25
      vertex -7.5 -4.35 0
      vertex -7.5 -4.35 1.25
    endloop
  endfacet
  facet normal 1 0 0
    outer loop
      vertex -7.5 -4.35 0
      vertex -7.5 -7.5 1.25
      vertex -7.5 -7.5 0
    endloop
  endfacet
  facet normal 0 1 -0
    outer loop
      vertex 0.15 -7.5 0
      vertex -7.5 -7.5 1.25
      vertex 0.15 -7.5 1.25
    endloop
  endfacet
  facet normal 0 1 0
    outer loop
      vertex -7.5 -7.5 1.25
      vertex 0.15 -7.5 0
      vertex -7.5 -7.5 0
    endloop
  endfacet
  facet normal 0 -1 0
    outer loop
      vertex -7.5 -4.35 0
      vertex -3 -4.35 1.25
      vertex -7.5 -4.35 1.25
    endloop
  endfacet
  facet normal 0 -1 -0
    outer loop
      vertex -3 -4.35 1.25
      vertex -7.5 -4.35 0
      vertex -3 -4.35 0
    endloop
  endfacet
  facet normal 1 -0 0
    outer loop
      vertex -7.5 0 1.25
      vertex -7.5 5.37868 0
      vertex -7.5 5.37868 1.25
    endloop
  endfacet
  facet normal 1 0 0
    outer loop
      vertex -7.5 5.37868 0
      vertex -7.5 0 1.25
      vertex -7.5 0 0
    endloop
  endfacet
  facet normal -1 0 0
    outer loop
      vertex 3.15 0.15 0
      vertex 3.15 4.5 1.25
      vertex 3.15 4.5 0
    endloop
  endfacet
  facet normal -1 -0 0
    outer loop
      vertex 3.15 4.5 1.25
      vertex 3.15 0.15 0
      vertex 3.15 0.15 1.25
    endloop
  endfacet
  facet normal 0 1 -0
    outer loop
      vertex -3 0 0
      vertex -7.5 0 1.25
      vertex -3 0 1.25
    endloop
  endfacet
  facet normal 0 1 0
    outer loop
      vertex -7.5 0 1.25
      vertex -3 0 0
      vertex -7.5 0 0
    endloop
  endfacet
  facet normal 0 -1 0
    outer loop
      vertex -0.728679 3.15 0
      vertex 0 3.15 1.25
      vertex -0.728679 3.15 1.25
    endloop
  endfacet
  facet normal 0 -1 -0
    outer loop
      vertex 0 3.15 1.25
      vertex -0.728679 3.15 0
      vertex 0 3.15 0
    endloop
  endfacet
  facet normal -1 0 0
    outer loop
      vertex -4.35 6.77132 0
      vertex -4.35 7.65 1.25
      vertex -4.35 7.65 0
    endloop
  endfacet
  facet normal -1 -0 0
    outer loop
      vertex -4.35 7.65 1.25
      vertex -4.35 6.77132 0
      vertex -4.35 6.77132 1.25
    endloop
  endfacet
  facet normal 0 -1 0
    outer loop
      vertex -5.22868 7.65 0
      vertex -4.35 7.65 1.25
      vertex -5.22868 7.65 1.25
    endloop
  endfacet
  facet normal 0 -1 -0
    outer loop
      vertex -4.35 7.65 1.25
      vertex -5.22868 7.65 0
      vertex -4.35 7.65 0
    endloop
  endfacet
  facet normal 1 -0 0
    outer loop
      vertex 0 3.15 1.25
      vertex 0 7.65 0
      vertex 0 7.65 1.25
    endloop
  endfacet
  facet normal 1 0 0
    outer loop
      vertex 0 7.65 0
      vertex 0 3.15 1.25
      vertex 0 3.15 0
    endloop
  endfacet
  facet normal -1 0 0
    outer loop
      vertex 7.65 4.5 0
      vertex 7.65 7.65 1.25
      vertex 7.65 7.65 0
    endloop
  endfacet
  facet normal -1 -0 0
    outer loop
      vertex 7.65 7.65 1.25
      vertex 7.65 4.5 0
      vertex 7.65 4.5 1.25
    endloop
  endfacet
  facet normal 0 1 -0
    outer loop
      vertex 7.65 4.5 0
      vertex 3.15 4.5 1.25
      vertex 7.65 4.5 1.25
    endloop
  endfacet
  facet normal 0 1 0
    outer loop
      vertex 3.15 4.5 1.25
      vertex 7.65 4.5 0
      vertex 3.15 4.5 0
    endloop
  endfacet
  facet normal 0 -1 0
    outer loop
      vertex 0 7.65 0
      vertex 7.65 7.65 1.25
      vertex 0 7.65 1.25
    endloop
  endfacet
  facet normal 0 -1 -0
    outer loop
      vertex 7.65 7.65 1.25
      vertex 0 7.65 0
      vertex 7.65 7.65 0
    endloop
  endfacet
  facet normal -0.951048 0.309044 0
    outer loop
      vertex -11.5878 2.49494 0
      vertex -10.8125 4.88084 1.25
      vertex -10.8125 4.88084 0
    endloop
  endfacet
  facet normal -0.951048 0.309044 0
    outer loop
      vertex -10.8125 4.88084 1.25
      vertex -11.5878 2.49494 0
      vertex -11.5878 2.49494 1.25
    endloop
  endfacet
  facet normal 0 -1 0
    outer loop
      vertex -1.10434 -11.7843 0
      vertex 1.25434 -11.7843 1.25
      vertex -1.10434 -11.7843 1.25
    endloop
  endfacet
  facet normal 0 -1 -0
    outer loop
      vertex 1.25434 -11.7843 1.25
      vertex -1.10434 -11.7843 0
      vertex 1.25434 -11.7843 0
    endloop
  endfacet
  facet normal -0.994524 0.10451 0
    outer loop
      vertex -11.8421 0.0749998 0
      vertex -11.5878 2.49494 1.25
      vertex -11.5878 2.49494 0
    endloop
  endfacet
  facet normal -0.994524 0.10451 0
    outer loop
      vertex -11.5878 2.49494 1.25
      vertex -11.8421 0.0749998 0
      vertex -11.8421 0.0749998 1.25
    endloop
  endfacet
  facet normal -0.994524 -0.10451 0
    outer loop
      vertex -11.5878 -2.34494 0
      vertex -11.8421 0.0749998 1.25
      vertex -11.8421 0.0749998 0
    endloop
  endfacet
  facet normal -0.994524 -0.10451 0
    outer loop
      vertex -11.8421 0.0749998 1.25
      vertex -11.5878 -2.34494 0
      vertex -11.5878 -2.34494 1.25
    endloop
  endfacet
  facet normal -0.951048 -0.309044 0
    outer loop
      vertex -10.8125 -4.73084 0
      vertex -11.5878 -2.34494 1.25
      vertex -11.5878 -2.34494 0
    endloop
  endfacet
  facet normal -0.951048 -0.309044 0
    outer loop
      vertex -11.5878 -2.34494 1.25
      vertex -10.8125 -4.73084 0
      vertex -10.8125 -4.73084 1.25
    endloop
  endfacet
  facet normal 0.707107 0.707107 0
    outer loop
      vertex 7.22846 -9.34978 1.25
      vertex 5.37868 -7.5 0
      vertex 5.37868 -7.5 1.25
    endloop
  endfacet
  facet normal 0.707107 0.707107 0
    outer loop
      vertex 5.37868 -7.5 0
      vertex 7.22846 -9.34978 1.25
      vertex 7.22846 -9.34978 0
    endloop
  endfacet
  facet normal 0.707107 0.707107 0
    outer loop
      vertex -7.5 5.37868 1.25
      vertex -9.37652 7.2552 0
      vertex -9.37652 7.2552 1.25
    endloop
  endfacet
  facet normal 0.707107 0.707107 0
    outer loop
      vertex -9.37652 7.2552 0
      vertex -7.5 5.37868 1.25
      vertex -7.5 5.37868 0
    endloop
  endfacet
  facet normal 0.707107 0.707107 -0
    outer loop
      vertex 4.5 -6.62132 0
      vertex 0.878679 -3 1.25
      vertex 4.5 -6.62132 1.25
    endloop
  endfacet
  facet normal 0.707107 0.707107 0
    outer loop
      vertex 0.878679 -3 1.25
      vertex 4.5 -6.62132 0
      vertex 0.878679 -3 0
    endloop
  endfacet
  facet normal -0.406745 0.913542 0
    outer loop
      vertex -3.5582 11.4127 0
      vertex -5.85 10.3923 1.25
      vertex -3.5582 11.4127 1.25
    endloop
  endfacet
  facet normal -0.406745 0.913542 0
    outer loop
      vertex -5.85 10.3923 1.25
      vertex -3.5582 11.4127 0
      vertex -5.85 10.3923 0
    endloop
  endfacet
  facet normal -0.743147 -0.669128 0
    outer loop
      vertex -7.87957 -8.76774 0
      vertex -9.5582 -6.90342 1.25
      vertex -9.5582 -6.90342 0
    endloop
  endfacet
  facet normal -0.743147 -0.669128 0
    outer loop
      vertex -9.5582 -6.90342 1.25
      vertex -7.87957 -8.76774 0
      vertex -7.87957 -8.76774 1.25
    endloop
  endfacet
  facet normal 0.866032 -0.499988 0
    outer loop
      vertex 9.7082 -6.90342 1.25
      vertex 10.9625 -4.73084 0
      vertex 10.9625 -4.73084 1.25
    endloop
  endfacet
  facet normal 0.866032 -0.499988 0
    outer loop
      vertex 10.9625 -4.73084 0
      vertex 9.7082 -6.90342 1.25
      vertex 9.7082 -6.90342 0
    endloop
  endfacet
  facet normal 0.951048 -0.309044 0
    outer loop
      vertex 10.9625 -4.73084 1.25
      vertex 11.7378 -2.34494 0
      vertex 11.7378 -2.34494 1.25
    endloop
  endfacet
  facet normal 0.951048 -0.309044 0
    outer loop
      vertex 11.7378 -2.34494 0
      vertex 10.9625 -4.73084 1.25
      vertex 10.9625 -4.73084 0
    endloop
  endfacet
  facet normal -0.406745 -0.913542 0
    outer loop
      vertex -5.85 -10.2423 0
      vertex -3.5582 -11.2627 1.25
      vertex -5.85 -10.2423 1.25
    endloop
  endfacet
  facet normal -0.406745 -0.913542 -0
    outer loop
      vertex -3.5582 -11.2627 1.25
      vertex -5.85 -10.2423 0
      vertex -3.5582 -11.2627 0
    endloop
  endfacet
  facet normal -0.866032 -0.499988 0
    outer loop
      vertex -9.5582 -6.90342 0
      vertex -10.8125 -4.73084 1.25
      vertex -10.8125 -4.73084 0
    endloop
  endfacet
  facet normal -0.866032 -0.499988 0
    outer loop
      vertex -10.8125 -4.73084 1.25
      vertex -9.5582 -6.90342 0
      vertex -9.5582 -6.90342 1.25
    endloop
  endfacet
  facet normal 0.406745 -0.913542 0
    outer loop
      vertex 3.7082 -11.2627 0
      vertex 6 -10.2423 1.25
      vertex 3.7082 -11.2627 1.25
    endloop
  endfacet
  facet normal 0.406745 -0.913542 0
    outer loop
      vertex 6 -10.2423 1.25
      vertex 3.7082 -11.2627 0
      vertex 6 -10.2423 0
    endloop
  endfacet
  facet normal -0.707107 -0.707107 0
    outer loop
      vertex 9.52652 -7.1052 0
      vertex 7.65 -5.22868 1.25
      vertex 7.65 -5.22868 0
    endloop
  endfacet
  facet normal -0.707107 -0.707107 0
    outer loop
      vertex 7.65 -5.22868 1.25
      vertex 9.52652 -7.1052 0
      vertex 9.52652 -7.1052 1.25
    endloop
  endfacet
  facet normal -0.707107 -0.707107 0
    outer loop
      vertex -5.22868 7.65 0
      vertex -7.07846 9.49978 1.25
      vertex -7.07846 9.49978 0
    endloop
  endfacet
  facet normal -0.707107 -0.707107 0
    outer loop
      vertex -7.07846 9.49978 1.25
      vertex -5.22868 7.65 0
      vertex -5.22868 7.65 1.25
    endloop
  endfacet
  facet normal -0.707107 -0.707107 0
    outer loop
      vertex -4.35 6.77132 0
      vertex -0.728679 3.15 1.25
      vertex -4.35 6.77132 1.25
    endloop
  endfacet
  facet normal -0.707107 -0.707107 -0
    outer loop
      vertex -0.728679 3.15 1.25
      vertex -4.35 6.77132 0
      vertex -0.728679 3.15 0
    endloop
  endfacet
  facet normal -0.866032 0.499988 0
    outer loop
      vertex -10.8125 4.88084 0
      vertex -9.5582 7.05342 1.25
      vertex -9.5582 7.05342 0
    endloop
  endfacet
  facet normal -0.866032 0.499988 0
    outer loop
      vertex -9.5582 7.05342 1.25
      vertex -10.8125 4.88084 0
      vertex -10.8125 4.88084 1.25
    endloop
  endfacet
  facet normal 0.994524 0.10451 0
    outer loop
      vertex 11.9921 0.0749998 1.25
      vertex 11.7378 2.49494 0
      vertex 11.7378 2.49494 1.25
    endloop
  endfacet
  facet normal 0.994524 0.10451 0
    outer loop
      vertex 11.7378 2.49494 0
      vertex 11.9921 0.0749998 1.25
      vertex 11.9921 0.0749998 0
    endloop
  endfacet
  facet normal 0.994524 -0.10451 0
    outer loop
      vertex 11.7378 -2.34494 1.25
      vertex 11.9921 0.0749998 0
      vertex 11.9921 0.0749998 1.25
    endloop
  endfacet
  facet normal 0.994524 -0.10451 0
    outer loop
      vertex 11.9921 0.0749998 0
      vertex 11.7378 -2.34494 1.25
      vertex 11.7378 -2.34494 0
    endloop
  endfacet
  facet normal -0.587782 0.80902 0
    outer loop
      vertex -5.85 10.3923 0
      vertex -7.07846 9.49978 1.25
      vertex -5.85 10.3923 1.25
    endloop
  endfacet
  facet normal -0.587782 0.80902 0
    outer loop
      vertex -7.07846 9.49978 1.25
      vertex -5.85 10.3923 0
      vertex -7.07846 9.49978 0
    endloop
  endfacet
  facet normal 0.207918 -0.978146 0
    outer loop
      vertex 1.25434 -11.7843 0
      vertex 3.7082 -11.2627 1.25
      vertex 1.25434 -11.7843 1.25
    endloop
  endfacet
  facet normal 0.207918 -0.978146 0
    outer loop
      vertex 3.7082 -11.2627 1.25
      vertex 1.25434 -11.7843 0
      vertex 3.7082 -11.2627 0
    endloop
  endfacet
  facet normal 0.587782 -0.80902 0
    outer loop
      vertex 6 -10.2423 0
      vertex 7.22846 -9.34978 1.25
      vertex 6 -10.2423 1.25
    endloop
  endfacet
  facet normal 0.587782 -0.80902 0
    outer loop
      vertex 7.22846 -9.34978 1.25
      vertex 6 -10.2423 0
      vertex 7.22846 -9.34978 0
    endloop
  endfacet
  facet normal -0.743151 0.669123 0
    outer loop
      vertex -9.5582 7.05342 0
      vertex -9.37652 7.2552 1.25
      vertex -9.37652 7.2552 0
    endloop
  endfacet
  facet normal -0.743151 0.669123 0
    outer loop
      vertex -9.37652 7.2552 1.25
      vertex -9.5582 7.05342 0
      vertex -9.5582 7.05342 1.25
    endloop
  endfacet
  facet normal -0.207918 0.978146 0
    outer loop
      vertex -1.10434 11.9343 0
      vertex -3.5582 11.4127 1.25
      vertex -1.10434 11.9343 1.25
    endloop
  endfacet
  facet normal -0.207918 0.978146 0
    outer loop
      vertex -3.5582 11.4127 1.25
      vertex -1.10434 11.9343 0
      vertex -3.5582 11.4127 0
    endloop
  endfacet
  facet normal 0.743151 -0.669123 0
    outer loop
      vertex 9.52652 -7.1052 1.25
      vertex 9.7082 -6.90342 0
      vertex 9.7082 -6.90342 1.25
    endloop
  endfacet
  facet normal 0.743151 -0.669123 0
    outer loop
      vertex 9.7082 -6.90342 0
      vertex 9.52652 -7.1052 1.25
      vertex 9.52652 -7.1052 0
    endloop
  endfacet
  facet normal -0.207918 -0.978146 0
    outer loop
      vertex -3.5582 -11.2627 0
      vertex -1.10434 -11.7843 1.25
      vertex -3.5582 -11.2627 1.25
    endloop
  endfacet
  facet normal -0.207918 -0.978146 -0
    outer loop
      vertex -1.10434 -11.7843 1.25
      vertex -3.5582 -11.2627 0
      vertex -1.10434 -11.7843 0
    endloop
  endfacet
  facet normal -0.587783 -0.809019 0
    outer loop
      vertex -7.87957 -8.76774 0
      vertex -5.85 -10.2423 1.25
      vertex -7.87957 -8.76774 1.25
    endloop
  endfacet
  facet normal -0.587783 -0.809019 -0
    outer loop
      vertex -5.85 -10.2423 1.25
      vertex -7.87957 -8.76774 0
      vertex -5.85 -10.2423 0
    endloop
  endfacet
endsolid OpenSCAD_Model
