solid OpenSCAD_Model
  facet normal 1 -0 0
    outer loop
      vertex 10 25 5
      vertex 10 50 0
      vertex 10 50 5
    endloop
  endfacet
  facet normal 1 0 0
    outer loop
      vertex 10 0 0
      vertex 10 25 5
      vertex 10 0 5
    endloop
  endfacet
  facet normal 1 0 0
    outer loop
      vertex 10 25 5
      vertex 10 0 0
      vertex 10 50 0
    endloop
  endfacet
  facet normal -0 0 1
    outer loop
      vertex 9.6194 48.0866 5
      vertex 10 25 5
      vertex 10 50 5
    endloop
  endfacet
  facet normal 0 0 1
    outer loop
      vertex 9.6194 48.0866 5
      vertex 9.6194 26.9134 5
      vertex 10 25 5
    endloop
  endfacet
  facet normal -0 0 1
    outer loop
      vertex 8.53553 46.4645 5
      vertex 9.6194 26.9134 5
      vertex 9.6194 48.0866 5
    endloop
  endfacet
  facet normal 0 0 1
    outer loop
      vertex 8.53553 46.4645 5
      vertex 8.53553 28.5355 5
      vertex 9.6194 26.9134 5
    endloop
  endfacet
  facet normal -0 0 1
    outer loop
      vertex 6.91342 45.3806 5
      vertex 8.53553 28.5355 5
      vertex 8.53553 46.4645 5
    endloop
  endfacet
  facet normal 0 0 1
    outer loop
      vertex 6.91342 45.3806 5
      vertex 6.91342 29.6194 5
      vertex 8.53553 28.5355 5
    endloop
  endfacet
  facet normal -0 0 1
    outer loop
      vertex 5 45 5
      vertex 6.91342 29.6194 5
      vertex 6.91342 45.3806 5
    endloop
  endfacet
  facet normal 0 0 1
    outer loop
      vertex 5 45 5
      vertex 5 30 5
      vertex 6.91342 29.6194 5
    endloop
  endfacet
  facet normal 0 0 1
    outer loop
      vertex 3.08658 45.3806 5
      vertex 5 30 5
      vertex 5 45 5
    endloop
  endfacet
  facet normal 0 0 1
    outer loop
      vertex 3.08658 45.3806 5
      vertex 3.08658 29.6194 5
      vertex 5 30 5
    endloop
  endfacet
  facet normal 0 0 1
    outer loop
      vertex 1.46447 46.4645 5
      vertex 3.08658 29.6194 5
      vertex 3.08658 45.3806 5
    endloop
  endfacet
  facet normal 0 0 1
    outer loop
      vertex 1.46447 46.4645 5
      vertex 1.46447 28.5355 5
      vertex 3.08658 29.6194 5
    endloop
  endfacet
  facet normal 0 0 1
    outer loop
      vertex 0.380602 48.0866 5
      vertex 1.46447 28.5355 5
      vertex 1.46447 46.4645 5
    endloop
  endfacet
  facet normal 0 0 1
    outer loop
      vertex 0.380602 48.0866 5
      vertex 0.380602 26.9134 5
      vertex 1.46447 28.5355 5
    endloop
  endfacet
  facet normal 0 0 1
    outer loop
      vertex 0 50 5
      vertex 0.380602 26.9134 5
      vertex 0.380602 48.0866 5
    endloop
  endfacet
  facet normal 0 0 1
    outer loop
      vertex 0.380602 26.9134 5
      vertex 0 50 5
      vertex 0 25 5
    endloop
  endfacet
  facet normal -0 0 1
    outer loop
      vertex 9.6194 23.0866 5
      vertex 10 0 5
      vertex 10 25 5
    endloop
  endfacet
  facet normal 0 0 1
    outer loop
      vertex 9.6194 23.0866 5
      vertex 9.6194 1.91342 5
      vertex 10 0 5
    endloop
  endfacet
  facet normal -0 0 1
    outer loop
      vertex 8.53553 21.4645 5
      vertex 9.6194 1.91342 5
      vertex 9.6194 23.0866 5
    endloop
  endfacet
  facet normal 0 0 1
    outer loop
      vertex 8.53553 21.4645 5
      vertex 8.53553 3.53553 5
      vertex 9.6194 1.91342 5
    endloop
  endfacet
  facet normal -0 0 1
    outer loop
      vertex 6.91342 20.3806 5
      vertex 8.53553 3.53553 5
      vertex 8.53553 21.4645 5
    endloop
  endfacet
  facet normal 0 0 1
    outer loop
      vertex 6.91342 20.3806 5
      vertex 6.91342 4.6194 5
      vertex 8.53553 3.53553 5
    endloop
  endfacet
  facet normal -0 0 1
    outer loop
      vertex 5 20 5
      vertex 6.91342 4.6194 5
      vertex 6.91342 20.3806 5
    endloop
  endfacet
  facet normal 0 0 1
    outer loop
      vertex 5 20 5
      vertex 5 5 5
      vertex 6.91342 4.6194 5
    endloop
  endfacet
  facet normal 0 0 1
    outer loop
      vertex 3.08658 20.3806 5
      vertex 5 5 5
      vertex 5 20 5
    endloop
  endfacet
  facet normal 0 0 1
    outer loop
      vertex 3.08658 20.3806 5
      vertex 3.08658 4.6194 5
      vertex 5 5 5
    endloop
  endfacet
  facet normal 0 0 1
    outer loop
      vertex 1.46447 21.4645 5
      vertex 3.08658 4.6194 5
      vertex 3.08658 20.3806 5
    endloop
  endfacet
  facet normal 0 0 1
    outer loop
      vertex 1.46447 21.4645 5
      vertex 1.46447 3.53553 5
      vertex 3.08658 4.6194 5
    endloop
  endfacet
  facet normal 0 0 1
    outer loop
      vertex 0.380602 23.0866 5
      vertex 1.46447 3.53553 5
      vertex 1.46447 21.4645 5
    endloop
  endfacet
  facet normal 0 0 1
    outer loop
      vertex 0.380602 23.0866 5
      vertex 0.380602 1.91342 5
      vertex 1.46447 3.53553 5
    endloop
  endfacet
  facet normal 0 0 1
    outer loop
      vertex 0 25 5
      vertex 0.380602 1.91342 5
      vertex 0.380602 23.0866 5
    endloop
  endfacet
  facet normal 0 0 1
    outer loop
      vertex 0.380602 1.91342 5
      vertex 0 25 5
      vertex 0 0 5
    endloop
  endfacet
  facet normal 0 0 -1
    outer loop
      vertex 0 0 0
      vertex 10 0 0
      vertex 9.6194 -1.91342 0
    endloop
  endfacet
  facet normal 0 0 -1
    outer loop
      vertex 10 0 0
      vertex 0 0 0
      vertex 10 50 0
    endloop
  endfacet
  facet normal 0 0 -1
    outer loop
      vertex 0 0 0
      vertex 9.6194 -1.91342 0
      vertex 8.53553 -3.53553 0
    endloop
  endfacet
  facet normal 0 0 -1
    outer loop
      vertex 0 50 0
      vertex 10 50 0
      vertex 0 0 0
    endloop
  endfacet
  facet normal 0 0 -1
    outer loop
      vertex 0 0 0
      vertex 8.53553 -3.53553 0
      vertex 6.91342 -4.6194 0
    endloop
  endfacet
  facet normal 0 0 -1
    outer loop
      vertex 10 50 0
      vertex 0 50 0
      vertex 9.6194 51.9134 0
    endloop
  endfacet
  facet normal 0 0 -1
    outer loop
      vertex 0 0 0
      vertex 6.91342 -4.6194 0
      vertex 5 -5 0
    endloop
  endfacet
  facet normal -0 0 -1
    outer loop
      vertex 9.6194 51.9134 0
      vertex 0 50 0
      vertex 8.53553 53.5355 0
    endloop
  endfacet
  facet normal 0 0 -1
    outer loop
      vertex 0 0 0
      vertex 5 -5 0
      vertex 3.08658 -4.6194 0
    endloop
  endfacet
  facet normal -0 0 -1
    outer loop
      vertex 8.53553 53.5355 0
      vertex 0 50 0
      vertex 6.91342 54.6194 0
    endloop
  endfacet
  facet normal 0 0 -1
    outer loop
      vertex 0 0 0
      vertex 3.08658 -4.6194 0
      vertex 1.46447 -3.53553 0
    endloop
  endfacet
  facet normal -0 0 -1
    outer loop
      vertex 6.91342 54.6194 0
      vertex 0 50 0
      vertex 5 55 0
    endloop
  endfacet
  facet normal 0 0 -1
    outer loop
      vertex 0 0 0
      vertex 1.46447 -3.53553 0
      vertex 0.380602 -1.91342 0
    endloop
  endfacet
  facet normal 0 0 -1
    outer loop
      vertex 5 55 0
      vertex 0 50 0
      vertex 3.08658 54.6194 0
    endloop
  endfacet
  facet normal 0 0 -1
    outer loop
      vertex 3.08658 54.6194 0
      vertex 0 50 0
      vertex 1.46447 53.5355 0
    endloop
  endfacet
  facet normal 0 0 -1
    outer loop
      vertex 1.46447 53.5355 0
      vertex 0 50 0
      vertex 0.380602 51.9134 0
    endloop
  endfacet
  facet normal -1 0 0
    outer loop
      vertex 0 50 0
      vertex 0 25 5
      vertex 0 50 5
    endloop
  endfacet
  facet normal -1 0 0
    outer loop
      vertex 0 0 0
      vertex 0 25 5
      vertex 0 50 0
    endloop
  endfacet
  facet normal -1 -0 0
    outer loop
      vertex 0 25 5
      vertex 0 0 0
      vertex 0 0 5
    endloop
  endfacet
  facet normal -0.195089 -0.980786 0
    outer loop
      vertex 3.08658 -4.6194 0
      vertex 5 -5 50
      vertex 3.08658 -4.6194 50
    endloop
  endfacet
  facet normal -0.195089 -0.980786 -0
    outer loop
      vertex 5 -5 50
      vertex 3.08658 -4.6194 0
      vertex 5 -5 0
    endloop
  endfacet
  facet normal 0.831467 -0.555574 0
    outer loop
      vertex 8.53553 -3.53553 50
      vertex 9.6194 -1.91342 0
      vertex 9.6194 -1.91342 50
    endloop
  endfacet
  facet normal 0.831467 -0.555574 0
    outer loop
      vertex 9.6194 -1.91342 0
      vertex 8.53553 -3.53553 50
      vertex 8.53553 -3.53553 0
    endloop
  endfacet
  facet normal 0.831467 0.555574 0
    outer loop
      vertex 9.6194 1.91342 50
      vertex 8.53553 3.53553 5
      vertex 8.53553 3.53553 50
    endloop
  endfacet
  facet normal 0.831467 0.555574 0
    outer loop
      vertex 8.53553 3.53553 5
      vertex 9.6194 1.91342 50
      vertex 9.6194 1.91342 5
    endloop
  endfacet
  facet normal 0.980786 0.195089 0
    outer loop
      vertex 10 0 50
      vertex 9.6194 1.91342 5
      vertex 9.6194 1.91342 50
    endloop
  endfacet
  facet normal 0.980786 0.195089 0
    outer loop
      vertex 9.6194 1.91342 5
      vertex 10 0 50
      vertex 10 0 5
    endloop
  endfacet
  facet normal 0.555574 0.831467 -0
    outer loop
      vertex 8.53553 3.53553 5
      vertex 6.91342 4.6194 50
      vertex 8.53553 3.53553 50
    endloop
  endfacet
  facet normal 0.555574 0.831467 0
    outer loop
      vertex 6.91342 4.6194 50
      vertex 8.53553 3.53553 5
      vertex 6.91342 4.6194 5
    endloop
  endfacet
  facet normal 0.195089 0.980786 -0
    outer loop
      vertex 6.91342 4.6194 5
      vertex 5 5 50
      vertex 6.91342 4.6194 50
    endloop
  endfacet
  facet normal 0.195089 0.980786 0
    outer loop
      vertex 5 5 50
      vertex 6.91342 4.6194 5
      vertex 5 5 5
    endloop
  endfacet
  facet normal -0.980785 -0.19509 0
    outer loop
      vertex 0.380602 -1.91342 0
      vertex 0 0 5
      vertex 0 0 0
    endloop
  endfacet
  facet normal -0.980785 -0.19509 -0
    outer loop
      vertex 0.380602 -1.91342 50
      vertex 0 0 5
      vertex 0.380602 -1.91342 0
    endloop
  endfacet
  facet normal -0.980785 -0.19509 0
    outer loop
      vertex 0 0 5
      vertex 0.380602 -1.91342 50
      vertex 0 0 50
    endloop
  endfacet
  facet normal 0.555574 -0.831467 0
    outer loop
      vertex 6.91342 -4.6194 0
      vertex 8.53553 -3.53553 50
      vertex 6.91342 -4.6194 50
    endloop
  endfacet
  facet normal 0.555574 -0.831467 0
    outer loop
      vertex 8.53553 -3.53553 50
      vertex 6.91342 -4.6194 0
      vertex 8.53553 -3.53553 0
    endloop
  endfacet
  facet normal -0.831468 0.555573 0
    outer loop
      vertex 0.380602 1.91342 5
      vertex 1.46447 3.53553 50
      vertex 1.46447 3.53553 5
    endloop
  endfacet
  facet normal -0.831468 0.555573 0
    outer loop
      vertex 1.46447 3.53553 50
      vertex 0.380602 1.91342 5
      vertex 0.380602 1.91342 50
    endloop
  endfacet
  facet normal -0.195089 0.980786 0
    outer loop
      vertex 5 5 5
      vertex 3.08658 4.6194 50
      vertex 5 5 50
    endloop
  endfacet
  facet normal -0.195089 0.980786 0
    outer loop
      vertex 3.08658 4.6194 50
      vertex 5 5 5
      vertex 3.08658 4.6194 5
    endloop
  endfacet
  facet normal -0.555574 0.831467 0
    outer loop
      vertex 3.08658 4.6194 5
      vertex 1.46447 3.53553 50
      vertex 3.08658 4.6194 50
    endloop
  endfacet
  facet normal -0.555574 0.831467 0
    outer loop
      vertex 1.46447 3.53553 50
      vertex 3.08658 4.6194 5
      vertex 1.46447 3.53553 5
    endloop
  endfacet
  facet normal 0.980786 -0.195089 0
    outer loop
      vertex 9.6194 -1.91342 50
      vertex 10 0 5
      vertex 10 0 50
    endloop
  endfacet
  facet normal 0.980786 -0.195089 0
    outer loop
      vertex 9.6194 -1.91342 0
      vertex 10 0 5
      vertex 9.6194 -1.91342 50
    endloop
  endfacet
  facet normal 0.980786 -0.195089 0
    outer loop
      vertex 10 0 5
      vertex 9.6194 -1.91342 0
      vertex 10 0 0
    endloop
  endfacet
  facet normal 0 0 1
    outer loop
      vertex 9.6194 1.91342 50
      vertex 9.6194 -1.91342 50
      vertex 10 0 50
    endloop
  endfacet
  facet normal 0 0 1
    outer loop
      vertex 8.53553 3.53553 50
      vertex 9.6194 -1.91342 50
      vertex 9.6194 1.91342 50
    endloop
  endfacet
  facet normal 0 0 1
    outer loop
      vertex 8.53553 3.53553 50
      vertex 8.53553 -3.53553 50
      vertex 9.6194 -1.91342 50
    endloop
  endfacet
  facet normal 0 0 1
    outer loop
      vertex 6.91342 4.6194 50
      vertex 8.53553 -3.53553 50
      vertex 8.53553 3.53553 50
    endloop
  endfacet
  facet normal 0 0 1
    outer loop
      vertex 6.91342 4.6194 50
      vertex 6.91342 -4.6194 50
      vertex 8.53553 -3.53553 50
    endloop
  endfacet
  facet normal 0 0 1
    outer loop
      vertex 5 5 50
      vertex 6.91342 -4.6194 50
      vertex 6.91342 4.6194 50
    endloop
  endfacet
  facet normal 0 0 1
    outer loop
      vertex 5 5 50
      vertex 5 -5 50
      vertex 6.91342 -4.6194 50
    endloop
  endfacet
  facet normal -0 0 1
    outer loop
      vertex 3.08658 4.6194 50
      vertex 5 -5 50
      vertex 5 5 50
    endloop
  endfacet
  facet normal 0 0 1
    outer loop
      vertex 3.08658 4.6194 50
      vertex 3.08658 -4.6194 50
      vertex 5 -5 50
    endloop
  endfacet
  facet normal -0 0 1
    outer loop
      vertex 1.46447 3.53553 50
      vertex 3.08658 -4.6194 50
      vertex 3.08658 4.6194 50
    endloop
  endfacet
  facet normal 0 0 1
    outer loop
      vertex 1.46447 3.53553 50
      vertex 1.46447 -3.53553 50
      vertex 3.08658 -4.6194 50
    endloop
  endfacet
  facet normal -0 0 1
    outer loop
      vertex 0.380602 1.91342 50
      vertex 1.46447 -3.53553 50
      vertex 1.46447 3.53553 50
    endloop
  endfacet
  facet normal 0 0 1
    outer loop
      vertex 0.380602 1.91342 50
      vertex 0.380602 -1.91342 50
      vertex 1.46447 -3.53553 50
    endloop
  endfacet
  facet normal 0 -0 1
    outer loop
      vertex 0.380602 -1.91342 50
      vertex 0.380602 1.91342 50
      vertex 0 0 50
    endloop
  endfacet
  facet normal -0.980785 0.19509 0
    outer loop
      vertex 0 0 5
      vertex 0.380602 1.91342 50
      vertex 0.380602 1.91342 5
    endloop
  endfacet
  facet normal -0.980785 0.19509 0
    outer loop
      vertex 0.380602 1.91342 50
      vertex 0 0 5
      vertex 0 0 50
    endloop
  endfacet
  facet normal -0.831468 -0.555573 0
    outer loop
      vertex 1.46447 -3.53553 0
      vertex 0.380602 -1.91342 50
      vertex 0.380602 -1.91342 0
    endloop
  endfacet
  facet normal -0.831468 -0.555573 0
    outer loop
      vertex 0.380602 -1.91342 50
      vertex 1.46447 -3.53553 0
      vertex 1.46447 -3.53553 50
    endloop
  endfacet
  facet normal 0.195089 -0.980786 0
    outer loop
      vertex 5 -5 0
      vertex 6.91342 -4.6194 50
      vertex 5 -5 50
    endloop
  endfacet
  facet normal 0.195089 -0.980786 0
    outer loop
      vertex 6.91342 -4.6194 50
      vertex 5 -5 0
      vertex 6.91342 -4.6194 0
    endloop
  endfacet
  facet normal -0.555574 -0.831467 0
    outer loop
      vertex 1.46447 -3.53553 0
      vertex 3.08658 -4.6194 50
      vertex 1.46447 -3.53553 50
    endloop
  endfacet
  facet normal -0.555574 -0.831467 -0
    outer loop
      vertex 3.08658 -4.6194 50
      vertex 1.46447 -3.53553 0
      vertex 3.08658 -4.6194 0
    endloop
  endfacet
  facet normal 0.831465 0.555576 0
    outer loop
      vertex 9.6194 26.9134 50
      vertex 8.53553 28.5355 5
      vertex 8.53553 28.5355 50
    endloop
  endfacet
  facet normal 0.831465 0.555576 0
    outer loop
      vertex 8.53553 28.5355 5
      vertex 9.6194 26.9134 50
      vertex 9.6194 26.9134 5
    endloop
  endfacet
  facet normal 0.980785 0.195091 0
    outer loop
      vertex 10 25 50
      vertex 9.6194 26.9134 5
      vertex 9.6194 26.9134 50
    endloop
  endfacet
  facet normal 0.980785 0.195091 0
    outer loop
      vertex 9.6194 26.9134 5
      vertex 10 25 50
      vertex 10 25 5
    endloop
  endfacet
  facet normal 0.555585 0.83146 -0
    outer loop
      vertex 8.53553 28.5355 5
      vertex 6.91342 29.6194 50
      vertex 8.53553 28.5355 50
    endloop
  endfacet
  facet normal 0.555585 0.83146 0
    outer loop
      vertex 6.91342 29.6194 50
      vertex 8.53553 28.5355 5
      vertex 6.91342 29.6194 5
    endloop
  endfacet
  facet normal 0.831465 -0.555576 0
    outer loop
      vertex 8.53553 21.4645 50
      vertex 9.6194 23.0866 5
      vertex 9.6194 23.0866 50
    endloop
  endfacet
  facet normal 0.831465 -0.555576 0
    outer loop
      vertex 9.6194 23.0866 5
      vertex 8.53553 21.4645 50
      vertex 8.53553 21.4645 5
    endloop
  endfacet
  facet normal -0.195089 0.980786 0
    outer loop
      vertex 5 30 5
      vertex 3.08658 29.6194 50
      vertex 5 30 50
    endloop
  endfacet
  facet normal -0.195089 0.980786 0
    outer loop
      vertex 3.08658 29.6194 50
      vertex 5 30 5
      vertex 3.08658 29.6194 5
    endloop
  endfacet
  facet normal -0.831466 0.555576 0
    outer loop
      vertex 0.380602 26.9134 5
      vertex 1.46447 28.5355 50
      vertex 1.46447 28.5355 5
    endloop
  endfacet
  facet normal -0.831466 0.555576 0
    outer loop
      vertex 1.46447 28.5355 50
      vertex 0.380602 26.9134 5
      vertex 0.380602 26.9134 50
    endloop
  endfacet
  facet normal -0.980785 0.195092 0
    outer loop
      vertex 0 25 5
      vertex 0.380602 26.9134 50
      vertex 0.380602 26.9134 5
    endloop
  endfacet
  facet normal -0.980785 0.195092 0
    outer loop
      vertex 0.380602 26.9134 50
      vertex 0 25 5
      vertex 0 25 50
    endloop
  endfacet
  facet normal 0.195089 -0.980786 0
    outer loop
      vertex 5 20 5
      vertex 6.91342 20.3806 50
      vertex 5 20 50
    endloop
  endfacet
  facet normal 0.195089 -0.980786 0
    outer loop
      vertex 6.91342 20.3806 50
      vertex 5 20 5
      vertex 6.91342 20.3806 5
    endloop
  endfacet
  facet normal -0.195089 -0.980786 0
    outer loop
      vertex 3.08658 20.3806 5
      vertex 5 20 50
      vertex 3.08658 20.3806 50
    endloop
  endfacet
  facet normal -0.195089 -0.980786 -0
    outer loop
      vertex 5 20 50
      vertex 3.08658 20.3806 5
      vertex 5 20 5
    endloop
  endfacet
  facet normal -0.980785 -0.195092 0
    outer loop
      vertex 0.380602 23.0866 5
      vertex 0 25 50
      vertex 0 25 5
    endloop
  endfacet
  facet normal -0.980785 -0.195092 0
    outer loop
      vertex 0 25 50
      vertex 0.380602 23.0866 5
      vertex 0.380602 23.0866 50
    endloop
  endfacet
  facet normal 0.195089 0.980786 -0
    outer loop
      vertex 6.91342 29.6194 5
      vertex 5 30 50
      vertex 6.91342 29.6194 50
    endloop
  endfacet
  facet normal 0.195089 0.980786 0
    outer loop
      vertex 5 30 50
      vertex 6.91342 29.6194 5
      vertex 5 30 5
    endloop
  endfacet
  facet normal 0.980785 -0.195091 0
    outer loop
      vertex 9.6194 23.0866 50
      vertex 10 25 5
      vertex 10 25 50
    endloop
  endfacet
  facet normal 0.980785 -0.195091 0
    outer loop
      vertex 10 25 5
      vertex 9.6194 23.0866 50
      vertex 9.6194 23.0866 5
    endloop
  endfacet
  facet normal 0.555585 -0.83146 0
    outer loop
      vertex 6.91342 20.3806 5
      vertex 8.53553 21.4645 50
      vertex 6.91342 20.3806 50
    endloop
  endfacet
  facet normal 0.555585 -0.83146 0
    outer loop
      vertex 8.53553 21.4645 50
      vertex 6.91342 20.3806 5
      vertex 8.53553 21.4645 5
    endloop
  endfacet
  facet normal -0.831466 -0.555576 0
    outer loop
      vertex 1.46447 21.4645 5
      vertex 0.380602 23.0866 50
      vertex 0.380602 23.0866 5
    endloop
  endfacet
  facet normal -0.831466 -0.555576 0
    outer loop
      vertex 0.380602 23.0866 50
      vertex 1.46447 21.4645 5
      vertex 1.46447 21.4645 50
    endloop
  endfacet
  facet normal -0.555585 0.83146 0
    outer loop
      vertex 3.08658 29.6194 5
      vertex 1.46447 28.5355 50
      vertex 3.08658 29.6194 50
    endloop
  endfacet
  facet normal -0.555585 0.83146 0
    outer loop
      vertex 1.46447 28.5355 50
      vertex 3.08658 29.6194 5
      vertex 1.46447 28.5355 5
    endloop
  endfacet
  facet normal -0.555585 -0.83146 0
    outer loop
      vertex 1.46447 21.4645 5
      vertex 3.08658 20.3806 50
      vertex 1.46447 21.4645 50
    endloop
  endfacet
  facet normal -0.555585 -0.83146 -0
    outer loop
      vertex 3.08658 20.3806 50
      vertex 1.46447 21.4645 5
      vertex 3.08658 20.3806 5
    endloop
  endfacet
  facet normal 0 0 1
    outer loop
      vertex 9.6194 26.9134 50
      vertex 9.6194 23.0866 50
      vertex 10 25 50
    endloop
  endfacet
  facet normal 0 0 1
    outer loop
      vertex 8.53553 28.5355 50
      vertex 9.6194 23.0866 50
      vertex 9.6194 26.9134 50
    endloop
  endfacet
  facet normal 0 0 1
    outer loop
      vertex 8.53553 28.5355 50
      vertex 8.53553 21.4645 50
      vertex 9.6194 23.0866 50
    endloop
  endfacet
  facet normal 0 0 1
    outer loop
      vertex 6.91342 29.6194 50
      vertex 8.53553 21.4645 50
      vertex 8.53553 28.5355 50
    endloop
  endfacet
  facet normal 0 0 1
    outer loop
      vertex 6.91342 29.6194 50
      vertex 6.91342 20.3806 50
      vertex 8.53553 21.4645 50
    endloop
  endfacet
  facet normal 0 0 1
    outer loop
      vertex 5 30 50
      vertex 6.91342 20.3806 50
      vertex 6.91342 29.6194 50
    endloop
  endfacet
  facet normal 0 0 1
    outer loop
      vertex 5 30 50
      vertex 5 20 50
      vertex 6.91342 20.3806 50
    endloop
  endfacet
  facet normal -0 0 1
    outer loop
      vertex 3.08658 29.6194 50
      vertex 5 20 50
      vertex 5 30 50
    endloop
  endfacet
  facet normal 0 0 1
    outer loop
      vertex 3.08658 29.6194 50
      vertex 3.08658 20.3806 50
      vertex 5 20 50
    endloop
  endfacet
  facet normal -0 0 1
    outer loop
      vertex 1.46447 28.5355 50
      vertex 3.08658 20.3806 50
      vertex 3.08658 29.6194 50
    endloop
  endfacet
  facet normal 0 0 1
    outer loop
      vertex 1.46447 28.5355 50
      vertex 1.46447 21.4645 50
      vertex 3.08658 20.3806 50
    endloop
  endfacet
  facet normal -0 0 1
    outer loop
      vertex 0.380602 26.9134 50
      vertex 1.46447 21.4645 50
      vertex 1.46447 28.5355 50
    endloop
  endfacet
  facet normal 0 0 1
    outer loop
      vertex 0.380602 26.9134 50
      vertex 0.380602 23.0866 50
      vertex 1.46447 21.4645 50
    endloop
  endfacet
  facet normal 0 -0 1
    outer loop
      vertex 0.380602 23.0866 50
      vertex 0.380602 26.9134 50
      vertex 0 25 50
    endloop
  endfacet
  facet normal 0.831465 0.555576 0
    outer loop
      vertex 9.6194 51.9134 50
      vertex 8.53553 53.5355 0
      vertex 8.53553 53.5355 50
    endloop
  endfacet
  facet normal 0.831465 0.555576 0
    outer loop
      vertex 8.53553 53.5355 0
      vertex 9.6194 51.9134 50
      vertex 9.6194 51.9134 0
    endloop
  endfacet
  facet normal 0.980785 0.195091 -0
    outer loop
      vertex 10 50 5
      vertex 9.6194 51.9134 50
      vertex 10 50 50
    endloop
  endfacet
  facet normal 0.980785 0.195091 0
    outer loop
      vertex 9.6194 51.9134 50
      vertex 10 50 5
      vertex 9.6194 51.9134 0
    endloop
  endfacet
  facet normal 0.980785 0.195091 0
    outer loop
      vertex 9.6194 51.9134 0
      vertex 10 50 5
      vertex 10 50 0
    endloop
  endfacet
  facet normal 0.555585 0.83146 -0
    outer loop
      vertex 8.53553 53.5355 0
      vertex 6.91342 54.6194 50
      vertex 8.53553 53.5355 50
    endloop
  endfacet
  facet normal 0.555585 0.83146 0
    outer loop
      vertex 6.91342 54.6194 50
      vertex 8.53553 53.5355 0
      vertex 6.91342 54.6194 0
    endloop
  endfacet
  facet normal 0.831465 -0.555576 0
    outer loop
      vertex 8.53553 46.4645 50
      vertex 9.6194 48.0866 5
      vertex 9.6194 48.0866 50
    endloop
  endfacet
  facet normal 0.831465 -0.555576 0
    outer loop
      vertex 9.6194 48.0866 5
      vertex 8.53553 46.4645 50
      vertex 8.53553 46.4645 5
    endloop
  endfacet
  facet normal -0.195089 0.980786 0
    outer loop
      vertex 5 55 0
      vertex 3.08658 54.6194 50
      vertex 5 55 50
    endloop
  endfacet
  facet normal -0.195089 0.980786 0
    outer loop
      vertex 3.08658 54.6194 50
      vertex 5 55 0
      vertex 3.08658 54.6194 0
    endloop
  endfacet
  facet normal -0.831466 0.555576 0
    outer loop
      vertex 0.380602 51.9134 0
      vertex 1.46447 53.5355 50
      vertex 1.46447 53.5355 0
    endloop
  endfacet
  facet normal -0.831466 0.555576 0
    outer loop
      vertex 1.46447 53.5355 50
      vertex 0.380602 51.9134 0
      vertex 0.380602 51.9134 50
    endloop
  endfacet
  facet normal -0.980785 0.195092 0
    outer loop
      vertex 0 50 5
      vertex 0.380602 51.9134 0
      vertex 0 50 0
    endloop
  endfacet
  facet normal -0.980785 0.195092 0
    outer loop
      vertex 0.380602 51.9134 0
      vertex 0 50 5
      vertex 0.380602 51.9134 50
    endloop
  endfacet
  facet normal -0.980785 0.195092 0
    outer loop
      vertex 0.380602 51.9134 50
      vertex 0 50 5
      vertex 0 50 50
    endloop
  endfacet
  facet normal 0.195089 -0.980786 0
    outer loop
      vertex 5 45 5
      vertex 6.91342 45.3806 50
      vertex 5 45 50
    endloop
  endfacet
  facet normal 0.195089 -0.980786 0
    outer loop
      vertex 6.91342 45.3806 50
      vertex 5 45 5
      vertex 6.91342 45.3806 5
    endloop
  endfacet
  facet normal -0.195089 -0.980786 0
    outer loop
      vertex 3.08658 45.3806 5
      vertex 5 45 50
      vertex 3.08658 45.3806 50
    endloop
  endfacet
  facet normal -0.195089 -0.980786 -0
    outer loop
      vertex 5 45 50
      vertex 3.08658 45.3806 5
      vertex 5 45 5
    endloop
  endfacet
  facet normal -0.980785 -0.195092 0
    outer loop
      vertex 0.380602 48.0866 5
      vertex 0 50 50
      vertex 0 50 5
    endloop
  endfacet
  facet normal -0.980785 -0.195092 0
    outer loop
      vertex 0 50 50
      vertex 0.380602 48.0866 5
      vertex 0.380602 48.0866 50
    endloop
  endfacet
  facet normal 0.195089 0.980786 -0
    outer loop
      vertex 6.91342 54.6194 0
      vertex 5 55 50
      vertex 6.91342 54.6194 50
    endloop
  endfacet
  facet normal 0.195089 0.980786 0
    outer loop
      vertex 5 55 50
      vertex 6.91342 54.6194 0
      vertex 5 55 0
    endloop
  endfacet
  facet normal 0.980785 -0.195091 0
    outer loop
      vertex 9.6194 48.0866 50
      vertex 10 50 5
      vertex 10 50 50
    endloop
  endfacet
  facet normal 0.980785 -0.195091 0
    outer loop
      vertex 10 50 5
      vertex 9.6194 48.0866 50
      vertex 9.6194 48.0866 5
    endloop
  endfacet
  facet normal 0.555585 -0.83146 0
    outer loop
      vertex 6.91342 45.3806 5
      vertex 8.53553 46.4645 50
      vertex 6.91342 45.3806 50
    endloop
  endfacet
  facet normal 0.555585 -0.83146 0
    outer loop
      vertex 8.53553 46.4645 50
      vertex 6.91342 45.3806 5
      vertex 8.53553 46.4645 5
    endloop
  endfacet
  facet normal -0.831466 -0.555576 0
    outer loop
      vertex 1.46447 46.4645 5
      vertex 0.380602 48.0866 50
      vertex 0.380602 48.0866 5
    endloop
  endfacet
  facet normal -0.831466 -0.555576 0
    outer loop
      vertex 0.380602 48.0866 50
      vertex 1.46447 46.4645 5
      vertex 1.46447 46.4645 50
    endloop
  endfacet
  facet normal -0.555585 0.83146 0
    outer loop
      vertex 3.08658 54.6194 0
      vertex 1.46447 53.5355 50
      vertex 3.08658 54.6194 50
    endloop
  endfacet
  facet normal -0.555585 0.83146 0
    outer loop
      vertex 1.46447 53.5355 50
      vertex 3.08658 54.6194 0
      vertex 1.46447 53.5355 0
    endloop
  endfacet
  facet normal -0.555585 -0.83146 0
    outer loop
      vertex 1.46447 46.4645 5
      vertex 3.08658 45.3806 50
      vertex 1.46447 46.4645 50
    endloop
  endfacet
  facet normal -0.555585 -0.83146 -0
    outer loop
      vertex 3.08658 45.3806 50
      vertex 1.46447 46.4645 5
      vertex 3.08658 45.3806 5
    endloop
  endfacet
  facet normal 0 0 1
    outer loop
      vertex 9.6194 51.9134 50
      vertex 9.6194 48.0866 50
      vertex 10 50 50
    endloop
  endfacet
  facet normal 0 0 1
    outer loop
      vertex 8.53553 53.5355 50
      vertex 9.6194 48.0866 50
      vertex 9.6194 51.9134 50
    endloop
  endfacet
  facet normal 0 0 1
    outer loop
      vertex 8.53553 53.5355 50
      vertex 8.53553 46.4645 50
      vertex 9.6194 48.0866 50
    endloop
  endfacet
  facet normal 0 0 1
    outer loop
      vertex 6.91342 54.6194 50
      vertex 8.53553 46.4645 50
      vertex 8.53553 53.5355 50
    endloop
  endfacet
  facet normal 0 0 1
    outer loop
      vertex 6.91342 54.6194 50
      vertex 6.91342 45.3806 50
      vertex 8.53553 46.4645 50
    endloop
  endfacet
  facet normal 0 0 1
    outer loop
      vertex 5 55 50
      vertex 6.91342 45.3806 50
      vertex 6.91342 54.6194 50
    endloop
  endfacet
  facet normal 0 0 1
    outer loop
      vertex 5 55 50
      vertex 5 45 50
      vertex 6.91342 45.3806 50
    endloop
  endfacet
  facet normal -0 0 1
    outer loop
      vertex 3.08658 54.6194 50
      vertex 5 45 50
      vertex 5 55 50
    endloop
  endfacet
  facet normal 0 0 1
    outer loop
      vertex 3.08658 54.6194 50
      vertex 3.08658 45.3806 50
      vertex 5 45 50
    endloop
  endfacet
  facet normal -0 0 1
    outer loop
      vertex 1.46447 53.5355 50
      vertex 3.08658 45.3806 50
      vertex 3.08658 54.6194 50
    endloop
  endfacet
  facet normal 0 0 1
    outer loop
      vertex 1.46447 53.5355 50
      vertex 1.46447 46.4645 50
      vertex 3.08658 45.3806 50
    endloop
  endfacet
  facet normal -0 0 1
    outer loop
      vertex 0.380602 51.9134 50
      vertex 1.46447 46.4645 50
      vertex 1.46447 53.5355 50
    endloop
  endfacet
  facet normal 0 0 1
    outer loop
      vertex 0.380602 51.9134 50
      vertex 0.380602 48.0866 50
      vertex 1.46447 46.4645 50
    endloop
  endfacet
  facet normal 0 -0 1
    outer loop
      vertex 0.380602 48.0866 50
      vertex 0.380602 51.9134 50
      vertex 0 50 50
    endloop
  endfacet
endsolid OpenSCAD_Model
