solid OpenSCAD_Model
  facet normal 0.587777 0.809023 -0
    outer loop
      vertex 10.037 11.1472 0
      vertex 7.5 12.9904 2.5
      vertex 10.037 11.1472 2.5
    endloop
  endfacet
  facet normal 0.587777 0.809023 0
    outer loop
      vertex 7.5 12.9904 2.5
      vertex 10.037 11.1472 0
      vertex 7.5 12.9904 0
    endloop
  endfacet
  facet normal -0.951059 0.309008 0
    outer loop
      vertex -14.6722 3.11868 0
      vertex -13.7032 6.10105 2.5
      vertex -13.7032 6.10105 0
    endloop
  endfacet
  facet normal -0.951059 0.309008 0
    outer loop
      vertex -13.7032 6.10105 2.5
      vertex -14.6722 3.11868 0
      vertex -14.6722 3.11868 2.5
    endloop
  endfacet
  facet normal 0.207918 -0.978146 0
    outer loop
      vertex 1.56793 -14.9178 0
      vertex 4.63525 -14.2658 2.5
      vertex 1.56793 -14.9178 2.5
    endloop
  endfacet
  facet normal 0.207918 -0.978146 0
    outer loop
      vertex 4.63525 -14.2658 2.5
      vertex 1.56793 -14.9178 0
      vertex 4.63525 -14.2658 0
    endloop
  endfacet
  facet normal -0.994521 0.104533 0
    outer loop
      vertex -15 0 0
      vertex -14.6722 3.11868 2.5
      vertex -14.6722 3.11868 0
    endloop
  endfacet
  facet normal -0.994521 0.104533 0
    outer loop
      vertex -14.6722 3.11868 2.5
      vertex -15 0 0
      vertex -15 0 2.5
    endloop
  endfacet
  facet normal 0 -1 0
    outer loop
      vertex -1.56793 -14.9178 0
      vertex 1.56793 -14.9178 2.5
      vertex -1.56793 -14.9178 2.5
    endloop
  endfacet
  facet normal 0 -1 -0
    outer loop
      vertex 1.56793 -14.9178 2.5
      vertex -1.56793 -14.9178 0
      vertex 1.56793 -14.9178 0
    endloop
  endfacet
  facet normal 0.406718 0.913554 -0
    outer loop
      vertex 7.5 12.9904 0
      vertex 4.63525 14.2658 2.5
      vertex 7.5 12.9904 2.5
    endloop
  endfacet
  facet normal 0.406718 0.913554 0
    outer loop
      vertex 4.63525 14.2658 2.5
      vertex 7.5 12.9904 0
      vertex 4.63525 14.2658 0
    endloop
  endfacet
  facet normal 0.994521 -0.104533 0
    outer loop
      vertex 14.6722 -3.11868 2.5
      vertex 15 0 0
      vertex 15 0 2.5
    endloop
  endfacet
  facet normal 0.994521 -0.104533 0
    outer loop
      vertex 15 0 0
      vertex 14.6722 -3.11868 2.5
      vertex 14.6722 -3.11868 0
    endloop
  endfacet
  facet normal 0.866029 0.499993 0
    outer loop
      vertex 13.7032 6.10105 2.5
      vertex 12.1353 8.81678 0
      vertex 12.1353 8.81678 2.5
    endloop
  endfacet
  facet normal 0.866029 0.499993 0
    outer loop
      vertex 12.1353 8.81678 0
      vertex 13.7032 6.10105 2.5
      vertex 13.7032 6.10105 0
    endloop
  endfacet
  facet normal 0.866029 -0.499993 0
    outer loop
      vertex 12.1353 -8.81678 2.5
      vertex 13.7032 -6.10105 0
      vertex 13.7032 -6.10105 2.5
    endloop
  endfacet
  facet normal 0.866029 -0.499993 0
    outer loop
      vertex 13.7032 -6.10105 0
      vertex 12.1353 -8.81678 2.5
      vertex 12.1353 -8.81678 0
    endloop
  endfacet
  facet normal -0.207918 -0.978146 0
    outer loop
      vertex -4.63525 -14.2658 0
      vertex -1.56793 -14.9178 2.5
      vertex -4.63525 -14.2658 2.5
    endloop
  endfacet
  facet normal -0.207918 -0.978146 -0
    outer loop
      vertex -1.56793 -14.9178 2.5
      vertex -4.63525 -14.2658 0
      vertex -1.56793 -14.9178 0
    endloop
  endfacet
  facet normal 0.743148 0.669127 0
    outer loop
      vertex 12.1353 8.81678 2.5
      vertex 10.037 11.1472 0
      vertex 10.037 11.1472 2.5
    endloop
  endfacet
  facet normal 0.743148 0.669127 0
    outer loop
      vertex 10.037 11.1472 0
      vertex 12.1353 8.81678 2.5
      vertex 12.1353 8.81678 0
    endloop
  endfacet
  facet normal 0.994521 0.104533 0
    outer loop
      vertex 15 0 2.5
      vertex 14.6722 3.11868 0
      vertex 14.6722 3.11868 2.5
    endloop
  endfacet
  facet normal 0.994521 0.104533 0
    outer loop
      vertex 14.6722 3.11868 0
      vertex 15 0 2.5
      vertex 15 0 0
    endloop
  endfacet
  facet normal -0.866029 0.499993 0
    outer loop
      vertex -13.7032 6.10105 0
      vertex -12.1353 8.81678 2.5
      vertex -12.1353 8.81678 0
    endloop
  endfacet
  facet normal -0.866029 0.499993 0
    outer loop
      vertex -12.1353 8.81678 2.5
      vertex -13.7032 6.10105 0
      vertex -13.7032 6.10105 2.5
    endloop
  endfacet
  facet normal 0.207918 0.978146 -0
    outer loop
      vertex 4.63525 14.2658 0
      vertex 1.56793 14.9178 2.5
      vertex 4.63525 14.2658 2.5
    endloop
  endfacet
  facet normal 0.207918 0.978146 0
    outer loop
      vertex 1.56793 14.9178 2.5
      vertex 4.63525 14.2658 0
      vertex 1.56793 14.9178 0
    endloop
  endfacet
  facet normal -0.951059 -0.309008 0
    outer loop
      vertex -13.7032 -6.10105 0
      vertex -14.6722 -3.11868 2.5
      vertex -14.6722 -3.11868 0
    endloop
  endfacet
  facet normal -0.951059 -0.309008 0
    outer loop
      vertex -14.6722 -3.11868 2.5
      vertex -13.7032 -6.10105 0
      vertex -13.7032 -6.10105 2.5
    endloop
  endfacet
  facet normal -0.587777 0.809023 0
    outer loop
      vertex -7.5 12.9904 0
      vertex -10.037 11.1472 2.5
      vertex -7.5 12.9904 2.5
    endloop
  endfacet
  facet normal -0.587777 0.809023 0
    outer loop
      vertex -10.037 11.1472 2.5
      vertex -7.5 12.9904 0
      vertex -10.037 11.1472 0
    endloop
  endfacet
  facet normal 0.951059 0.309008 0
    outer loop
      vertex 14.6722 3.11868 2.5
      vertex 13.7032 6.10105 0
      vertex 13.7032 6.10105 2.5
    endloop
  endfacet
  facet normal 0.951059 0.309008 0
    outer loop
      vertex 13.7032 6.10105 0
      vertex 14.6722 3.11868 2.5
      vertex 14.6722 3.11868 0
    endloop
  endfacet
  facet normal 0.406718 -0.913554 0
    outer loop
      vertex 4.63525 -14.2658 0
      vertex 7.5 -12.9904 2.5
      vertex 4.63525 -14.2658 2.5
    endloop
  endfacet
  facet normal 0.406718 -0.913554 0
    outer loop
      vertex 7.5 -12.9904 2.5
      vertex 4.63525 -14.2658 0
      vertex 7.5 -12.9904 0
    endloop
  endfacet
  facet normal -0.406718 -0.913554 0
    outer loop
      vertex -7.5 -12.9904 0
      vertex -4.63525 -14.2658 2.5
      vertex -7.5 -12.9904 2.5
    endloop
  endfacet
  facet normal -0.406718 -0.913554 -0
    outer loop
      vertex -4.63525 -14.2658 2.5
      vertex -7.5 -12.9904 0
      vertex -4.63525 -14.2658 0
    endloop
  endfacet
  facet normal -0.743148 0.669127 0
    outer loop
      vertex -12.1353 8.81678 0
      vertex -10.037 11.1472 2.5
      vertex -10.037 11.1472 0
    endloop
  endfacet
  facet normal -0.743148 0.669127 0
    outer loop
      vertex -10.037 11.1472 2.5
      vertex -12.1353 8.81678 0
      vertex -12.1353 8.81678 2.5
    endloop
  endfacet
  facet normal -0.207918 0.978146 0
    outer loop
      vertex -1.56793 14.9178 0
      vertex -4.63525 14.2658 2.5
      vertex -1.56793 14.9178 2.5
    endloop
  endfacet
  facet normal -0.207918 0.978146 0
    outer loop
      vertex -4.63525 14.2658 2.5
      vertex -1.56793 14.9178 0
      vertex -4.63525 14.2658 0
    endloop
  endfacet
  facet normal 0.587777 -0.809023 0
    outer loop
      vertex 7.5 -12.9904 0
      vertex 10.037 -11.1472 2.5
      vertex 7.5 -12.9904 2.5
    endloop
  endfacet
  facet normal 0.587777 -0.809023 0
    outer loop
      vertex 10.037 -11.1472 2.5
      vertex 7.5 -12.9904 0
      vertex 10.037 -11.1472 0
    endloop
  endfacet
  facet normal -0.587777 -0.809023 0
    outer loop
      vertex -10.037 -11.1472 0
      vertex -7.5 -12.9904 2.5
      vertex -10.037 -11.1472 2.5
    endloop
  endfacet
  facet normal -0.587777 -0.809023 -0
    outer loop
      vertex -7.5 -12.9904 2.5
      vertex -10.037 -11.1472 0
      vertex -7.5 -12.9904 0
    endloop
  endfacet
  facet normal 0 1 -0
    outer loop
      vertex 1.56793 14.9178 0
      vertex -1.56793 14.9178 2.5
      vertex 1.56793 14.9178 2.5
    endloop
  endfacet
  facet normal 0 1 0
    outer loop
      vertex -1.56793 14.9178 2.5
      vertex 1.56793 14.9178 0
      vertex -1.56793 14.9178 0
    endloop
  endfacet
  facet normal 0.743148 -0.669127 0
    outer loop
      vertex 10.037 -11.1472 2.5
      vertex 12.1353 -8.81678 0
      vertex 12.1353 -8.81678 2.5
    endloop
  endfacet
  facet normal 0.743148 -0.669127 0
    outer loop
      vertex 12.1353 -8.81678 0
      vertex 10.037 -11.1472 2.5
      vertex 10.037 -11.1472 0
    endloop
  endfacet
  facet normal 0 0 1
    outer loop
      vertex 12 0 2.5
      vertex 15 0 2.5
      vertex 14.6722 3.11868 2.5
    endloop
  endfacet
  facet normal 0 0 1
    outer loop
      vertex 11.7378 2.49494 2.5
      vertex 14.6722 3.11868 2.5
      vertex 13.7032 6.10105 2.5
    endloop
  endfacet
  facet normal 0 0 1
    outer loop
      vertex 15 0 2.5
      vertex 12 0 2.5
      vertex 14.6722 -3.11868 2.5
    endloop
  endfacet
  facet normal 0 0 1
    outer loop
      vertex 10.9625 4.88084 2.5
      vertex 13.7032 6.10105 2.5
      vertex 12.1353 8.81678 2.5
    endloop
  endfacet
  facet normal -0 0 1
    outer loop
      vertex 11.7378 -2.49494 2.5
      vertex 14.6722 -3.11868 2.5
      vertex 12 0 2.5
    endloop
  endfacet
  facet normal 0 0 1
    outer loop
      vertex 14.6722 -3.11868 2.5
      vertex 11.7378 -2.49494 2.5
      vertex 13.7032 -6.10105 2.5
    endloop
  endfacet
  facet normal 0 0 1
    outer loop
      vertex 14.6722 3.11868 2.5
      vertex 11.7378 2.49494 2.5
      vertex 12 0 2.5
    endloop
  endfacet
  facet normal 0 0 1
    outer loop
      vertex 13.7032 6.10105 2.5
      vertex 10.9625 4.88084 2.5
      vertex 11.7378 2.49494 2.5
    endloop
  endfacet
  facet normal 0 0 1
    outer loop
      vertex 9.7082 7.05342 2.5
      vertex 12.1353 8.81678 2.5
      vertex 10.037 11.1472 2.5
    endloop
  endfacet
  facet normal 0 0 1
    outer loop
      vertex 12.1353 8.81678 2.5
      vertex 9.7082 7.05342 2.5
      vertex 10.9625 4.88084 2.5
    endloop
  endfacet
  facet normal 0 0 1
    outer loop
      vertex 10.037 11.1472 2.5
      vertex 8.02957 8.91774 2.5
      vertex 9.7082 7.05342 2.5
    endloop
  endfacet
  facet normal 0 0 1
    outer loop
      vertex 7.5 12.9904 2.5
      vertex 8.02957 8.91774 2.5
      vertex 10.037 11.1472 2.5
    endloop
  endfacet
  facet normal 0 0 1
    outer loop
      vertex 7.5 12.9904 2.5
      vertex 6 10.3923 2.5
      vertex 8.02957 8.91774 2.5
    endloop
  endfacet
  facet normal 0 0 1
    outer loop
      vertex 4.63525 14.2658 2.5
      vertex 6 10.3923 2.5
      vertex 7.5 12.9904 2.5
    endloop
  endfacet
  facet normal 0 0 1
    outer loop
      vertex 4.63525 14.2658 2.5
      vertex 3.7082 11.4127 2.5
      vertex 6 10.3923 2.5
    endloop
  endfacet
  facet normal 0 0 1
    outer loop
      vertex 1.56793 14.9178 2.5
      vertex 3.7082 11.4127 2.5
      vertex 4.63525 14.2658 2.5
    endloop
  endfacet
  facet normal 0 0 1
    outer loop
      vertex 1.56793 14.9178 2.5
      vertex 1.25434 11.9343 2.5
      vertex 3.7082 11.4127 2.5
    endloop
  endfacet
  facet normal 0 0 1
    outer loop
      vertex 1.56793 14.9178 2.5
      vertex -1.25434 11.9343 2.5
      vertex 1.25434 11.9343 2.5
    endloop
  endfacet
  facet normal -0 0 1
    outer loop
      vertex -1.56793 14.9178 2.5
      vertex -1.25434 11.9343 2.5
      vertex 1.56793 14.9178 2.5
    endloop
  endfacet
  facet normal 0 0 1
    outer loop
      vertex -1.56793 14.9178 2.5
      vertex -3.7082 11.4127 2.5
      vertex -1.25434 11.9343 2.5
    endloop
  endfacet
  facet normal -0 0 1
    outer loop
      vertex -4.63525 14.2658 2.5
      vertex -3.7082 11.4127 2.5
      vertex -1.56793 14.9178 2.5
    endloop
  endfacet
  facet normal 0 0 1
    outer loop
      vertex -4.63525 14.2658 2.5
      vertex -6 10.3923 2.5
      vertex -3.7082 11.4127 2.5
    endloop
  endfacet
  facet normal -0 0 1
    outer loop
      vertex -7.5 12.9904 2.5
      vertex -6 10.3923 2.5
      vertex -4.63525 14.2658 2.5
    endloop
  endfacet
  facet normal 0 0 1
    outer loop
      vertex -6 10.3923 2.5
      vertex -7.5 12.9904 2.5
      vertex -7.31534 9.43666 2.5
    endloop
  endfacet
  facet normal -0 0 1
    outer loop
      vertex 10.9625 -4.88084 2.5
      vertex 13.7032 -6.10105 2.5
      vertex 11.7378 -2.49494 2.5
    endloop
  endfacet
  facet normal 0 0 1
    outer loop
      vertex 13.7032 -6.10105 2.5
      vertex 10.9625 -4.88084 2.5
      vertex 12.1353 -8.81678 2.5
    endloop
  endfacet
  facet normal -0 0 1
    outer loop
      vertex 9.7082 -7.05342 2.5
      vertex 12.1353 -8.81678 2.5
      vertex 10.9625 -4.88084 2.5
    endloop
  endfacet
  facet normal -0 0 1
    outer loop
      vertex 9.45545 -7.33413 2.5
      vertex 12.1353 -8.81678 2.5
      vertex 9.7082 -7.05342 2.5
    endloop
  endfacet
  facet normal 0 0 1
    outer loop
      vertex 12.1353 -8.81678 2.5
      vertex 9.45545 -7.33413 2.5
      vertex 10.037 -11.1472 2.5
    endloop
  endfacet
  facet normal -0 0 1
    outer loop
      vertex 7.31534 -9.43666 2.5
      vertex 10.037 -11.1472 2.5
      vertex 9.45545 -7.33413 2.5
    endloop
  endfacet
  facet normal 0 0 1
    outer loop
      vertex 10.037 -11.1472 2.5
      vertex 7.31534 -9.43666 2.5
      vertex 7.5 -12.9904 2.5
    endloop
  endfacet
  facet normal 0 0 1
    outer loop
      vertex -7.31534 9.43666 2.5
      vertex 7.31534 -9.43666 2.5
      vertex 9.45545 -7.33413 2.5
    endloop
  endfacet
  facet normal 0 0 1
    outer loop
      vertex -7.31534 9.43666 2.5
      vertex -9.45545 7.33413 2.5
      vertex 7.31534 -9.43666 2.5
    endloop
  endfacet
  facet normal -0 0 1
    outer loop
      vertex -10.037 11.1472 2.5
      vertex -7.31534 9.43666 2.5
      vertex -7.5 12.9904 2.5
    endloop
  endfacet
  facet normal 0 0 1
    outer loop
      vertex -7.31534 9.43666 2.5
      vertex -10.037 11.1472 2.5
      vertex -9.45545 7.33413 2.5
    endloop
  endfacet
  facet normal -0 0 1
    outer loop
      vertex -12.1353 8.81678 2.5
      vertex -9.45545 7.33413 2.5
      vertex -10.037 11.1472 2.5
    endloop
  endfacet
  facet normal 0 0 1
    outer loop
      vertex -9.45545 7.33413 2.5
      vertex -12.1353 8.81678 2.5
      vertex -9.7082 7.05342 2.5
    endloop
  endfacet
  facet normal 0 0 1
    outer loop
      vertex -9.7082 7.05342 2.5
      vertex -12.1353 8.81678 2.5
      vertex -10.9625 4.88084 2.5
    endloop
  endfacet
  facet normal 0 0 1
    outer loop
      vertex -10.9625 4.88084 2.5
      vertex -13.7032 6.10105 2.5
      vertex -11.7378 2.49494 2.5
    endloop
  endfacet
  facet normal -0 0 1
    outer loop
      vertex -13.7032 6.10105 2.5
      vertex -10.9625 4.88084 2.5
      vertex -12.1353 8.81678 2.5
    endloop
  endfacet
  facet normal -0 0 1
    outer loop
      vertex 6 -10.3923 2.5
      vertex 7.5 -12.9904 2.5
      vertex 7.31534 -9.43666 2.5
    endloop
  endfacet
  facet normal 0 0 1
    outer loop
      vertex 6 -10.3923 2.5
      vertex 4.63525 -14.2658 2.5
      vertex 7.5 -12.9904 2.5
    endloop
  endfacet
  facet normal -0 0 1
    outer loop
      vertex 3.7082 -11.4127 2.5
      vertex 4.63525 -14.2658 2.5
      vertex 6 -10.3923 2.5
    endloop
  endfacet
  facet normal 0 0 1
    outer loop
      vertex 3.7082 -11.4127 2.5
      vertex 1.56793 -14.9178 2.5
      vertex 4.63525 -14.2658 2.5
    endloop
  endfacet
  facet normal -0 0 1
    outer loop
      vertex 1.25434 -11.9343 2.5
      vertex 1.56793 -14.9178 2.5
      vertex 3.7082 -11.4127 2.5
    endloop
  endfacet
  facet normal -0 0 1
    outer loop
      vertex -1.25434 -11.9343 2.5
      vertex 1.56793 -14.9178 2.5
      vertex 1.25434 -11.9343 2.5
    endloop
  endfacet
  facet normal 0 0 1
    outer loop
      vertex -1.25434 -11.9343 2.5
      vertex -1.56793 -14.9178 2.5
      vertex 1.56793 -14.9178 2.5
    endloop
  endfacet
  facet normal 0 0 1
    outer loop
      vertex -3.7082 -11.4127 2.5
      vertex -1.56793 -14.9178 2.5
      vertex -1.25434 -11.9343 2.5
    endloop
  endfacet
  facet normal 0 0 1
    outer loop
      vertex -3.7082 -11.4127 2.5
      vertex -4.63525 -14.2658 2.5
      vertex -1.56793 -14.9178 2.5
    endloop
  endfacet
  facet normal 0 0 1
    outer loop
      vertex -6 -10.3923 2.5
      vertex -4.63525 -14.2658 2.5
      vertex -3.7082 -11.4127 2.5
    endloop
  endfacet
  facet normal 0 0 1
    outer loop
      vertex -6 -10.3923 2.5
      vertex -7.5 -12.9904 2.5
      vertex -4.63525 -14.2658 2.5
    endloop
  endfacet
  facet normal 0 0 1
    outer loop
      vertex -8.02957 -8.91774 2.5
      vertex -7.5 -12.9904 2.5
      vertex -6 -10.3923 2.5
    endloop
  endfacet
  facet normal 0 0 1
    outer loop
      vertex -10.037 -11.1472 2.5
      vertex -8.02957 -8.91774 2.5
      vertex -9.7082 -7.05342 2.5
    endloop
  endfacet
  facet normal 0 0 1
    outer loop
      vertex -8.02957 -8.91774 2.5
      vertex -10.037 -11.1472 2.5
      vertex -7.5 -12.9904 2.5
    endloop
  endfacet
  facet normal 0 0 1
    outer loop
      vertex -12.1353 -8.81678 2.5
      vertex -9.7082 -7.05342 2.5
      vertex -10.9625 -4.88084 2.5
    endloop
  endfacet
  facet normal 0 0 1
    outer loop
      vertex -13.7032 -6.10105 2.5
      vertex -10.9625 -4.88084 2.5
      vertex -11.7378 -2.49494 2.5
    endloop
  endfacet
  facet normal 0 0 1
    outer loop
      vertex -9.7082 -7.05342 2.5
      vertex -12.1353 -8.81678 2.5
      vertex -10.037 -11.1472 2.5
    endloop
  endfacet
  facet normal 0 0 1
    outer loop
      vertex -14.6722 -3.11868 2.5
      vertex -11.7378 -2.49494 2.5
      vertex -12 0 2.5
    endloop
  endfacet
  facet normal -0 0 1
    outer loop
      vertex -14.6722 3.11868 2.5
      vertex -11.7378 2.49494 2.5
      vertex -13.7032 6.10105 2.5
    endloop
  endfacet
  facet normal 0 0 1
    outer loop
      vertex -11.7378 2.49494 2.5
      vertex -14.6722 3.11868 2.5
      vertex -12 0 2.5
    endloop
  endfacet
  facet normal 0 0 1
    outer loop
      vertex -10.9625 -4.88084 2.5
      vertex -13.7032 -6.10105 2.5
      vertex -12.1353 -8.81678 2.5
    endloop
  endfacet
  facet normal 0 0 1
    outer loop
      vertex -15 0 2.5
      vertex -12 0 2.5
      vertex -14.6722 3.11868 2.5
    endloop
  endfacet
  facet normal 0 0 1
    outer loop
      vertex -11.7378 -2.49494 2.5
      vertex -14.6722 -3.11868 2.5
      vertex -13.7032 -6.10105 2.5
    endloop
  endfacet
  facet normal 0 0 1
    outer loop
      vertex -12 0 2.5
      vertex -15 0 2.5
      vertex -14.6722 -3.11868 2.5
    endloop
  endfacet
  facet normal -0.406718 0.913554 0
    outer loop
      vertex -4.63525 14.2658 0
      vertex -7.5 12.9904 2.5
      vertex -4.63525 14.2658 2.5
    endloop
  endfacet
  facet normal -0.406718 0.913554 0
    outer loop
      vertex -7.5 12.9904 2.5
      vertex -4.63525 14.2658 0
      vertex -7.5 12.9904 0
    endloop
  endfacet
  facet normal 0 0 -1
    outer loop
      vertex 7.5 -12.9904 0
      vertex 6 -10.3923 0
      vertex 7.31534 -9.43666 0
    endloop
  endfacet
  facet normal 0 0 -1
    outer loop
      vertex 4.63525 -14.2658 0
      vertex 6 -10.3923 0
      vertex 7.5 -12.9904 0
    endloop
  endfacet
  facet normal 0 0 -1
    outer loop
      vertex 4.63525 -14.2658 0
      vertex 3.7082 -11.4127 0
      vertex 6 -10.3923 0
    endloop
  endfacet
  facet normal 0 0 -1
    outer loop
      vertex 1.56793 -14.9178 0
      vertex 3.7082 -11.4127 0
      vertex 4.63525 -14.2658 0
    endloop
  endfacet
  facet normal 0 0 -1
    outer loop
      vertex 1.56793 -14.9178 0
      vertex 1.25434 -11.9343 0
      vertex 3.7082 -11.4127 0
    endloop
  endfacet
  facet normal 0 0 -1
    outer loop
      vertex 1.56793 -14.9178 0
      vertex -1.25434 -11.9343 0
      vertex 1.25434 -11.9343 0
    endloop
  endfacet
  facet normal 0 0 -1
    outer loop
      vertex -1.56793 -14.9178 0
      vertex -1.25434 -11.9343 0
      vertex 1.56793 -14.9178 0
    endloop
  endfacet
  facet normal 0 0 -1
    outer loop
      vertex -1.56793 -14.9178 0
      vertex -3.7082 -11.4127 0
      vertex -1.25434 -11.9343 0
    endloop
  endfacet
  facet normal 0 0 -1
    outer loop
      vertex -4.63525 -14.2658 0
      vertex -3.7082 -11.4127 0
      vertex -1.56793 -14.9178 0
    endloop
  endfacet
  facet normal 0 0 -1
    outer loop
      vertex -4.63525 -14.2658 0
      vertex -6 -10.3923 0
      vertex -3.7082 -11.4127 0
    endloop
  endfacet
  facet normal 0 0 -1
    outer loop
      vertex -7.5 -12.9904 0
      vertex -6 -10.3923 0
      vertex -4.63525 -14.2658 0
    endloop
  endfacet
  facet normal 0 0 -1
    outer loop
      vertex -7.5 -12.9904 0
      vertex -8.02957 -8.91774 0
      vertex -6 -10.3923 0
    endloop
  endfacet
  facet normal 0 0 -1
    outer loop
      vertex -10.037 -11.1472 0
      vertex -8.02957 -8.91774 0
      vertex -7.5 -12.9904 0
    endloop
  endfacet
  facet normal -0 0 -1
    outer loop
      vertex -8.02957 -8.91774 0
      vertex -10.037 -11.1472 0
      vertex -9.7082 -7.05342 0
    endloop
  endfacet
  facet normal 0 0 -1
    outer loop
      vertex -12.1353 -8.81678 0
      vertex -9.7082 -7.05342 0
      vertex -10.037 -11.1472 0
    endloop
  endfacet
  facet normal -0 0 -1
    outer loop
      vertex -9.7082 -7.05342 0
      vertex -12.1353 -8.81678 0
      vertex -10.9625 -4.88084 0
    endloop
  endfacet
  facet normal -0 0 -1
    outer loop
      vertex -10.9625 -4.88084 0
      vertex -13.7032 -6.10105 0
      vertex -11.7378 -2.49494 0
    endloop
  endfacet
  facet normal 0 0 -1
    outer loop
      vertex -13.7032 -6.10105 0
      vertex -10.9625 -4.88084 0
      vertex -12.1353 -8.81678 0
    endloop
  endfacet
  facet normal 0 0 -1
    outer loop
      vertex 12 0 0
      vertex 15 0 0
      vertex 14.6722 -3.11868 0
    endloop
  endfacet
  facet normal 0 0 -1
    outer loop
      vertex 11.7378 -2.49494 0
      vertex 14.6722 -3.11868 0
      vertex 13.7032 -6.10105 0
    endloop
  endfacet
  facet normal 0 0 -1
    outer loop
      vertex 15 0 0
      vertex 12 0 0
      vertex 14.6722 3.11868 0
    endloop
  endfacet
  facet normal 0 0 -1
    outer loop
      vertex 10.9625 -4.88084 0
      vertex 13.7032 -6.10105 0
      vertex 12.1353 -8.81678 0
    endloop
  endfacet
  facet normal 0 0 -1
    outer loop
      vertex 11.7378 2.49494 0
      vertex 14.6722 3.11868 0
      vertex 12 0 0
    endloop
  endfacet
  facet normal -0 0 -1
    outer loop
      vertex 14.6722 3.11868 0
      vertex 11.7378 2.49494 0
      vertex 13.7032 6.10105 0
    endloop
  endfacet
  facet normal 0 0 -1
    outer loop
      vertex 14.6722 -3.11868 0
      vertex 11.7378 -2.49494 0
      vertex 12 0 0
    endloop
  endfacet
  facet normal 0 0 -1
    outer loop
      vertex 13.7032 -6.10105 0
      vertex 10.9625 -4.88084 0
      vertex 11.7378 -2.49494 0
    endloop
  endfacet
  facet normal 0 0 -1
    outer loop
      vertex 9.45545 -7.33413 0
      vertex 12.1353 -8.81678 0
      vertex 10.037 -11.1472 0
    endloop
  endfacet
  facet normal 0 0 -1
    outer loop
      vertex 12.1353 -8.81678 0
      vertex 9.7082 -7.05342 0
      vertex 10.9625 -4.88084 0
    endloop
  endfacet
  facet normal 0 0 -1
    outer loop
      vertex 12.1353 -8.81678 0
      vertex 9.45545 -7.33413 0
      vertex 9.7082 -7.05342 0
    endloop
  endfacet
  facet normal 0 0 -1
    outer loop
      vertex 7.31534 -9.43666 0
      vertex 10.037 -11.1472 0
      vertex 7.5 -12.9904 0
    endloop
  endfacet
  facet normal 0 0 -1
    outer loop
      vertex 10.037 -11.1472 0
      vertex 7.31534 -9.43666 0
      vertex 9.45545 -7.33413 0
    endloop
  endfacet
  facet normal 0 0 -1
    outer loop
      vertex 7.31534 -9.43666 0
      vertex -7.31534 9.43666 0
      vertex 9.45545 -7.33413 0
    endloop
  endfacet
  facet normal 0 0 -1
    outer loop
      vertex -9.45545 7.33413 0
      vertex -7.31534 9.43666 0
      vertex 7.31534 -9.43666 0
    endloop
  endfacet
  facet normal 0 0 -1
    outer loop
      vertex -10.037 11.1472 0
      vertex -7.31534 9.43666 0
      vertex -9.45545 7.33413 0
    endloop
  endfacet
  facet normal 0 0 -1
    outer loop
      vertex -12.1353 8.81678 0
      vertex -9.45545 7.33413 0
      vertex -9.7082 7.05342 0
    endloop
  endfacet
  facet normal 0 0 -1
    outer loop
      vertex -7.31534 9.43666 0
      vertex -10.037 11.1472 0
      vertex -7.5 12.9904 0
    endloop
  endfacet
  facet normal 0 0 -1
    outer loop
      vertex -12.1353 8.81678 0
      vertex -9.7082 7.05342 0
      vertex -10.9625 4.88084 0
    endloop
  endfacet
  facet normal 0 0 -1
    outer loop
      vertex -13.7032 6.10105 0
      vertex -10.9625 4.88084 0
      vertex -11.7378 2.49494 0
    endloop
  endfacet
  facet normal 0 0 -1
    outer loop
      vertex -9.45545 7.33413 0
      vertex -12.1353 8.81678 0
      vertex -10.037 11.1472 0
    endloop
  endfacet
  facet normal 0 0 -1
    outer loop
      vertex -14.6722 3.11868 0
      vertex -11.7378 2.49494 0
      vertex -12 0 0
    endloop
  endfacet
  facet normal 0 0 -1
    outer loop
      vertex -14.6722 -3.11868 0
      vertex -11.7378 -2.49494 0
      vertex -13.7032 -6.10105 0
    endloop
  endfacet
  facet normal -0 0 -1
    outer loop
      vertex -11.7378 -2.49494 0
      vertex -14.6722 -3.11868 0
      vertex -12 0 0
    endloop
  endfacet
  facet normal 0 0 -1
    outer loop
      vertex -10.9625 4.88084 0
      vertex -13.7032 6.10105 0
      vertex -12.1353 8.81678 0
    endloop
  endfacet
  facet normal 0 0 -1
    outer loop
      vertex -15 0 0
      vertex -12 0 0
      vertex -14.6722 -3.11868 0
    endloop
  endfacet
  facet normal 0 0 -1
    outer loop
      vertex -11.7378 2.49494 0
      vertex -14.6722 3.11868 0
      vertex -13.7032 6.10105 0
    endloop
  endfacet
  facet normal 0 0 -1
    outer loop
      vertex -12 0 0
      vertex -15 0 0
      vertex -14.6722 3.11868 0
    endloop
  endfacet
  facet normal 0 0 -1
    outer loop
      vertex 10.9625 4.88084 0
      vertex 13.7032 6.10105 0
      vertex 11.7378 2.49494 0
    endloop
  endfacet
  facet normal -0 0 -1
    outer loop
      vertex 13.7032 6.10105 0
      vertex 10.9625 4.88084 0
      vertex 12.1353 8.81678 0
    endloop
  endfacet
  facet normal 0 0 -1
    outer loop
      vertex 9.7082 7.05342 0
      vertex 12.1353 8.81678 0
      vertex 10.9625 4.88084 0
    endloop
  endfacet
  facet normal -0 0 -1
    outer loop
      vertex 12.1353 8.81678 0
      vertex 9.7082 7.05342 0
      vertex 10.037 11.1472 0
    endloop
  endfacet
  facet normal 0 0 -1
    outer loop
      vertex 8.02957 8.91774 0
      vertex 10.037 11.1472 0
      vertex 9.7082 7.05342 0
    endloop
  endfacet
  facet normal 0 0 -1
    outer loop
      vertex 8.02957 8.91774 0
      vertex 7.5 12.9904 0
      vertex 10.037 11.1472 0
    endloop
  endfacet
  facet normal 0 0 -1
    outer loop
      vertex 6 10.3923 0
      vertex 7.5 12.9904 0
      vertex 8.02957 8.91774 0
    endloop
  endfacet
  facet normal 0 0 -1
    outer loop
      vertex 6 10.3923 0
      vertex 4.63525 14.2658 0
      vertex 7.5 12.9904 0
    endloop
  endfacet
  facet normal 0 0 -1
    outer loop
      vertex 3.7082 11.4127 0
      vertex 4.63525 14.2658 0
      vertex 6 10.3923 0
    endloop
  endfacet
  facet normal 0 0 -1
    outer loop
      vertex 3.7082 11.4127 0
      vertex 1.56793 14.9178 0
      vertex 4.63525 14.2658 0
    endloop
  endfacet
  facet normal 0 0 -1
    outer loop
      vertex 1.25434 11.9343 0
      vertex 1.56793 14.9178 0
      vertex 3.7082 11.4127 0
    endloop
  endfacet
  facet normal 0 0 -1
    outer loop
      vertex -1.25434 11.9343 0
      vertex 1.56793 14.9178 0
      vertex 1.25434 11.9343 0
    endloop
  endfacet
  facet normal 0 0 -1
    outer loop
      vertex -1.25434 11.9343 0
      vertex -1.56793 14.9178 0
      vertex 1.56793 14.9178 0
    endloop
  endfacet
  facet normal 0 0 -1
    outer loop
      vertex -3.7082 11.4127 0
      vertex -1.56793 14.9178 0
      vertex -1.25434 11.9343 0
    endloop
  endfacet
  facet normal 0 0 -1
    outer loop
      vertex -3.7082 11.4127 0
      vertex -4.63525 14.2658 0
      vertex -1.56793 14.9178 0
    endloop
  endfacet
  facet normal 0 0 -1
    outer loop
      vertex -6 10.3923 0
      vertex -4.63525 14.2658 0
      vertex -3.7082 11.4127 0
    endloop
  endfacet
  facet normal 0 0 -1
    outer loop
      vertex -7.5 12.9904 0
      vertex -6 10.3923 0
      vertex -7.31534 9.43666 0
    endloop
  endfacet
  facet normal 0 0 -1
    outer loop
      vertex -6 10.3923 0
      vertex -7.5 12.9904 0
      vertex -4.63525 14.2658 0
    endloop
  endfacet
  facet normal -0.866029 -0.499993 0
    outer loop
      vertex -12.1353 -8.81678 0
      vertex -13.7032 -6.10105 2.5
      vertex -13.7032 -6.10105 0
    endloop
  endfacet
  facet normal -0.866029 -0.499993 0
    outer loop
      vertex -13.7032 -6.10105 2.5
      vertex -12.1353 -8.81678 0
      vertex -12.1353 -8.81678 2.5
    endloop
  endfacet
  facet normal -0.743148 -0.669127 0
    outer loop
      vertex -10.037 -11.1472 0
      vertex -12.1353 -8.81678 2.5
      vertex -12.1353 -8.81678 0
    endloop
  endfacet
  facet normal -0.743148 -0.669127 0
    outer loop
      vertex -12.1353 -8.81678 2.5
      vertex -10.037 -11.1472 0
      vertex -10.037 -11.1472 2.5
    endloop
  endfacet
  facet normal 0.951059 -0.309008 0
    outer loop
      vertex 13.7032 -6.10105 2.5
      vertex 14.6722 -3.11868 0
      vertex 14.6722 -3.11868 2.5
    endloop
  endfacet
  facet normal 0.951059 -0.309008 0
    outer loop
      vertex 14.6722 -3.11868 0
      vertex 13.7032 -6.10105 2.5
      vertex 13.7032 -6.10105 0
    endloop
  endfacet
  facet normal -0.994521 -0.104533 0
    outer loop
      vertex -14.6722 -3.11868 0
      vertex -15 0 2.5
      vertex -15 0 0
    endloop
  endfacet
  facet normal -0.994521 -0.104533 0
    outer loop
      vertex -15 0 2.5
      vertex -14.6722 -3.11868 0
      vertex -14.6722 -3.11868 2.5
    endloop
  endfacet
  facet normal 0.994523 -0.104517 0
    outer loop
      vertex -12 0 2.5
      vertex -11.7378 2.49494 0
      vertex -11.7378 2.49494 2.5
    endloop
  endfacet
  facet normal 0.994523 -0.104517 0
    outer loop
      vertex -11.7378 2.49494 0
      vertex -12 0 2.5
      vertex -12 0 0
    endloop
  endfacet
  facet normal -0.406745 0.913542 0
    outer loop
      vertex 6 -10.3923 0
      vertex 3.7082 -11.4127 2.5
      vertex 6 -10.3923 2.5
    endloop
  endfacet
  facet normal -0.406745 0.913542 0
    outer loop
      vertex 3.7082 -11.4127 2.5
      vertex 6 -10.3923 0
      vertex 3.7082 -11.4127 0
    endloop
  endfacet
  facet normal -0.743148 0.669127 0
    outer loop
      vertex 9.45545 -7.33413 0
      vertex 9.7082 -7.05342 2.5
      vertex 9.7082 -7.05342 0
    endloop
  endfacet
  facet normal -0.743148 0.669127 0
    outer loop
      vertex 9.7082 -7.05342 2.5
      vertex 9.45545 -7.33413 0
      vertex 9.45545 -7.33413 2.5
    endloop
  endfacet
  facet normal -0.994523 0.104517 0
    outer loop
      vertex 11.7378 -2.49494 0
      vertex 12 0 2.5
      vertex 12 0 0
    endloop
  endfacet
  facet normal -0.994523 0.104517 0
    outer loop
      vertex 12 0 2.5
      vertex 11.7378 -2.49494 0
      vertex 11.7378 -2.49494 2.5
    endloop
  endfacet
  facet normal -0.866032 0.499988 0
    outer loop
      vertex 9.7082 -7.05342 0
      vertex 10.9625 -4.88084 2.5
      vertex 10.9625 -4.88084 0
    endloop
  endfacet
  facet normal -0.866032 0.499988 0
    outer loop
      vertex 10.9625 -4.88084 2.5
      vertex 9.7082 -7.05342 0
      vertex 9.7082 -7.05342 2.5
    endloop
  endfacet
  facet normal -0.866032 -0.499988 0
    outer loop
      vertex 10.9625 4.88084 0
      vertex 9.7082 7.05342 2.5
      vertex 9.7082 7.05342 0
    endloop
  endfacet
  facet normal -0.866032 -0.499988 0
    outer loop
      vertex 9.7082 7.05342 2.5
      vertex 10.9625 4.88084 0
      vertex 10.9625 4.88084 2.5
    endloop
  endfacet
  facet normal 0.587781 -0.80902 0
    outer loop
      vertex -7.31534 9.43666 0
      vertex -6 10.3923 2.5
      vertex -7.31534 9.43666 2.5
    endloop
  endfacet
  facet normal 0.587781 -0.80902 0
    outer loop
      vertex -6 10.3923 2.5
      vertex -7.31534 9.43666 0
      vertex -6 10.3923 0
    endloop
  endfacet
  facet normal 0.743148 -0.669127 0
    outer loop
      vertex -9.7082 7.05342 2.5
      vertex -9.45545 7.33413 0
      vertex -9.45545 7.33413 2.5
    endloop
  endfacet
  facet normal 0.743148 -0.669127 0
    outer loop
      vertex -9.45545 7.33413 0
      vertex -9.7082 7.05342 2.5
      vertex -9.7082 7.05342 0
    endloop
  endfacet
  facet normal -0.994523 -0.104517 0
    outer loop
      vertex 12 0 0
      vertex 11.7378 2.49494 2.5
      vertex 11.7378 2.49494 0
    endloop
  endfacet
  facet normal -0.994523 -0.104517 0
    outer loop
      vertex 11.7378 2.49494 2.5
      vertex 12 0 0
      vertex 12 0 2.5
    endloop
  endfacet
  facet normal 0.743147 0.669128 0
    outer loop
      vertex -8.02957 -8.91774 2.5
      vertex -9.7082 -7.05342 0
      vertex -9.7082 -7.05342 2.5
    endloop
  endfacet
  facet normal 0.743147 0.669128 0
    outer loop
      vertex -9.7082 -7.05342 0
      vertex -8.02957 -8.91774 2.5
      vertex -8.02957 -8.91774 0
    endloop
  endfacet
  facet normal -0.951048 -0.309044 0
    outer loop
      vertex 11.7378 2.49494 0
      vertex 10.9625 4.88084 2.5
      vertex 10.9625 4.88084 0
    endloop
  endfacet
  facet normal -0.951048 -0.309044 0
    outer loop
      vertex 10.9625 4.88084 2.5
      vertex 11.7378 2.49494 0
      vertex 11.7378 2.49494 2.5
    endloop
  endfacet
  facet normal 0.207918 -0.978146 0
    outer loop
      vertex -3.7082 11.4127 0
      vertex -1.25434 11.9343 2.5
      vertex -3.7082 11.4127 2.5
    endloop
  endfacet
  facet normal 0.207918 -0.978146 0
    outer loop
      vertex -1.25434 11.9343 2.5
      vertex -3.7082 11.4127 0
      vertex -1.25434 11.9343 0
    endloop
  endfacet
  facet normal 0 1 -0
    outer loop
      vertex 1.25434 -11.9343 0
      vertex -1.25434 -11.9343 2.5
      vertex 1.25434 -11.9343 2.5
    endloop
  endfacet
  facet normal 0 1 0
    outer loop
      vertex -1.25434 -11.9343 2.5
      vertex 1.25434 -11.9343 0
      vertex -1.25434 -11.9343 0
    endloop
  endfacet
  facet normal 0.866032 0.499988 0
    outer loop
      vertex -9.7082 -7.05342 2.5
      vertex -10.9625 -4.88084 0
      vertex -10.9625 -4.88084 2.5
    endloop
  endfacet
  facet normal 0.866032 0.499988 0
    outer loop
      vertex -10.9625 -4.88084 0
      vertex -9.7082 -7.05342 2.5
      vertex -9.7082 -7.05342 0
    endloop
  endfacet
  facet normal -0.406745 -0.913542 0
    outer loop
      vertex 3.7082 11.4127 0
      vertex 6 10.3923 2.5
      vertex 3.7082 11.4127 2.5
    endloop
  endfacet
  facet normal -0.406745 -0.913542 -0
    outer loop
      vertex 6 10.3923 2.5
      vertex 3.7082 11.4127 0
      vertex 6 10.3923 0
    endloop
  endfacet
  facet normal 0.994523 0.104517 0
    outer loop
      vertex -11.7378 -2.49494 2.5
      vertex -12 0 0
      vertex -12 0 2.5
    endloop
  endfacet
  facet normal 0.994523 0.104517 0
    outer loop
      vertex -12 0 0
      vertex -11.7378 -2.49494 2.5
      vertex -11.7378 -2.49494 0
    endloop
  endfacet
  facet normal 0 -1 0
    outer loop
      vertex -1.25434 11.9343 0
      vertex 1.25434 11.9343 2.5
      vertex -1.25434 11.9343 2.5
    endloop
  endfacet
  facet normal 0 -1 -0
    outer loop
      vertex 1.25434 11.9343 2.5
      vertex -1.25434 11.9343 0
      vertex 1.25434 11.9343 0
    endloop
  endfacet
  facet normal 0.587783 0.809019 -0
    outer loop
      vertex -6 -10.3923 0
      vertex -8.02957 -8.91774 2.5
      vertex -6 -10.3923 2.5
    endloop
  endfacet
  facet normal 0.587783 0.809019 0
    outer loop
      vertex -8.02957 -8.91774 2.5
      vertex -6 -10.3923 0
      vertex -8.02957 -8.91774 0
    endloop
  endfacet
  facet normal -0.207918 0.978146 0
    outer loop
      vertex 3.7082 -11.4127 0
      vertex 1.25434 -11.9343 2.5
      vertex 3.7082 -11.4127 2.5
    endloop
  endfacet
  facet normal -0.207918 0.978146 0
    outer loop
      vertex 1.25434 -11.9343 2.5
      vertex 3.7082 -11.4127 0
      vertex 1.25434 -11.9343 0
    endloop
  endfacet
  facet normal 0.406745 -0.913542 0
    outer loop
      vertex -6 10.3923 0
      vertex -3.7082 11.4127 2.5
      vertex -6 10.3923 2.5
    endloop
  endfacet
  facet normal 0.406745 -0.913542 0
    outer loop
      vertex -3.7082 11.4127 2.5
      vertex -6 10.3923 0
      vertex -3.7082 11.4127 0
    endloop
  endfacet
  facet normal 0.951048 0.309044 0
    outer loop
      vertex -10.9625 -4.88084 2.5
      vertex -11.7378 -2.49494 0
      vertex -11.7378 -2.49494 2.5
    endloop
  endfacet
  facet normal 0.951048 0.309044 0
    outer loop
      vertex -11.7378 -2.49494 0
      vertex -10.9625 -4.88084 2.5
      vertex -10.9625 -4.88084 0
    endloop
  endfacet
  facet normal -0.587783 -0.809019 0
    outer loop
      vertex 6 10.3923 0
      vertex 8.02957 8.91774 2.5
      vertex 6 10.3923 2.5
    endloop
  endfacet
  facet normal -0.587783 -0.809019 -0
    outer loop
      vertex 8.02957 8.91774 2.5
      vertex 6 10.3923 0
      vertex 8.02957 8.91774 0
    endloop
  endfacet
  facet normal 0.207918 0.978146 -0
    outer loop
      vertex -1.25434 -11.9343 0
      vertex -3.7082 -11.4127 2.5
      vertex -1.25434 -11.9343 2.5
    endloop
  endfacet
  facet normal 0.207918 0.978146 0
    outer loop
      vertex -3.7082 -11.4127 2.5
      vertex -1.25434 -11.9343 0
      vertex -3.7082 -11.4127 0
    endloop
  endfacet
  facet normal -0.951048 0.309044 0
    outer loop
      vertex 10.9625 -4.88084 0
      vertex 11.7378 -2.49494 2.5
      vertex 11.7378 -2.49494 0
    endloop
  endfacet
  facet normal -0.951048 0.309044 0
    outer loop
      vertex 11.7378 -2.49494 2.5
      vertex 10.9625 -4.88084 0
      vertex 10.9625 -4.88084 2.5
    endloop
  endfacet
  facet normal -0.587781 0.80902 0
    outer loop
      vertex 7.31534 -9.43666 0
      vertex 6 -10.3923 2.5
      vertex 7.31534 -9.43666 2.5
    endloop
  endfacet
  facet normal -0.587781 0.80902 0
    outer loop
      vertex 6 -10.3923 2.5
      vertex 7.31534 -9.43666 0
      vertex 6 -10.3923 0
    endloop
  endfacet
  facet normal -0.743147 -0.669128 0
    outer loop
      vertex 9.7082 7.05342 0
      vertex 8.02957 8.91774 2.5
      vertex 8.02957 8.91774 0
    endloop
  endfacet
  facet normal -0.743147 -0.669128 0
    outer loop
      vertex 8.02957 8.91774 2.5
      vertex 9.7082 7.05342 0
      vertex 9.7082 7.05342 2.5
    endloop
  endfacet
  facet normal 0.866032 -0.499988 0
    outer loop
      vertex -10.9625 4.88084 2.5
      vertex -9.7082 7.05342 0
      vertex -9.7082 7.05342 2.5
    endloop
  endfacet
  facet normal 0.866032 -0.499988 0
    outer loop
      vertex -9.7082 7.05342 0
      vertex -10.9625 4.88084 2.5
      vertex -10.9625 4.88084 0
    endloop
  endfacet
  facet normal 0.406745 0.913542 -0
    outer loop
      vertex -3.7082 -11.4127 0
      vertex -6 -10.3923 2.5
      vertex -3.7082 -11.4127 2.5
    endloop
  endfacet
  facet normal 0.406745 0.913542 0
    outer loop
      vertex -6 -10.3923 2.5
      vertex -3.7082 -11.4127 0
      vertex -6 -10.3923 0
    endloop
  endfacet
  facet normal -0.207918 -0.978146 0
    outer loop
      vertex 1.25434 11.9343 0
      vertex 3.7082 11.4127 2.5
      vertex 1.25434 11.9343 2.5
    endloop
  endfacet
  facet normal -0.207918 -0.978146 -0
    outer loop
      vertex 3.7082 11.4127 2.5
      vertex 1.25434 11.9343 0
      vertex 3.7082 11.4127 0
    endloop
  endfacet
  facet normal 0.951048 -0.309044 0
    outer loop
      vertex -11.7378 2.49494 2.5
      vertex -10.9625 4.88084 0
      vertex -10.9625 4.88084 2.5
    endloop
  endfacet
  facet normal 0.951048 -0.309044 0
    outer loop
      vertex -10.9625 4.88084 0
      vertex -11.7378 2.49494 2.5
      vertex -11.7378 2.49494 0
    endloop
  endfacet
  facet normal 0.707107 0.707107 0
    outer loop
      vertex 9.45545 -7.33413 2.5
      vertex -7.31534 9.43666 0
      vertex -7.31534 9.43666 2.5
    endloop
  endfacet
  facet normal 0.707107 0.707107 0
    outer loop
      vertex -7.31534 9.43666 0
      vertex 9.45545 -7.33413 2.5
      vertex 9.45545 -7.33413 0
    endloop
  endfacet
  facet normal -0.707107 -0.707107 0
    outer loop
      vertex 7.31534 -9.43666 0
      vertex -9.45545 7.33413 2.5
      vertex -9.45545 7.33413 0
    endloop
  endfacet
  facet normal -0.707107 -0.707107 0
    outer loop
      vertex -9.45545 7.33413 2.5
      vertex 7.31534 -9.43666 0
      vertex 7.31534 -9.43666 2.5
    endloop
  endfacet
endsolid OpenSCAD_Model
